<?xml version="1.0" encoding="utf-8"?><svg width="auto" height="2120" style="overflow:visible " version="1.1" xmlns="http://www.w3.org/2000/svg"><rect x="20" y="20" width="200" height="40" style="fill:white;stroke:black;stroke-width:1" /><text x="30" y="30" font-size="10" style="fill:blue">html</text><text x="30" y="40" font-size="8" style="fill:black">lang: es</text><rect x="240" y="20" width="200" height="40" style="fill:white;stroke:black;stroke-width:1" /><text x="250" y="30" font-size="10" style="fill:blue">head</text><path d="M220 40 C240 40 220 40 240 40" style="fill:transparent;stroke:black" /><rect x="460" y="20" width="200" height="40" style="fill:white;stroke:black;stroke-width:1" /><text x="470" y="30" font-size="10" style="fill:blue">meta</text><path d="M440 40 C460 40 440 40 460 40" style="fill:transparent;stroke:black" /><text x="470" y="40" font-size="8" style="fill:black">charset: UTF-8</text><rect x="460" y="70" width="200" height="40" style="fill:white;stroke:black;stroke-width:1" /><text x="470" y="80" font-size="10" style="fill:blue">meta</text><path d="M440 40 C460 40 440 90 460 90" style="fill:transparent;stroke:black" /><text x="470" y="90" font-size="8" style="fill:black">name: author</text><text x="470" y="100" font-size="8" style="fill:black">content: Carlos Sanabria Miranda</text><rect x="460" y="120" width="200" height="40" style="fill:white;stroke:black;stroke-width:1" /><text x="470" y="130" font-size="10" style="fill:blue">meta</text><path d="M440 40 C460 40 440 140 460 140" style="fill:transparent;stroke:black" /><text x="470" y="140" font-size="8" style="fill:black">name: description</text><text x="470" y="150" font-size="8" style="fill:black">content: Página personal para la asignatura de SEW</text><rect x="460" y="170" width="200" height="40" style="fill:white;stroke:black;stroke-width:1" /><text x="470" y="180" font-size="10" style="fill:blue">meta</text><path d="M440 40 C460 40 440 190 460 190" style="fill:transparent;stroke:black" /><text x="470" y="190" font-size="8" style="fill:black">name: keywords</text><text x="470" y="200" font-size="8" style="fill:black">content: personal,SEW,eii,software,estandares,web,uniovi,uo250707</text><rect x="460" y="220" width="200" height="40" style="fill:white;stroke:black;stroke-width:1" /><text x="470" y="230" font-size="10" style="fill:blue">title</text><path d="M440 40 C460 40 440 240 460 240" style="fill:transparent;stroke:black" /><rect x="526" y="220" width="137" height="40" style="fill:green;stroke:black;stroke-width:1" /><text x="536" y="230" font-size="8" style="fill:white">Web Personal</text><rect x="460" y="270" width="200" height="40" style="fill:white;stroke:black;stroke-width:1" /><text x="470" y="280" font-size="10" style="fill:blue">link</text><path d="M440 40 C460 40 440 290 460 290" style="fill:transparent;stroke:black" /><text x="470" y="290" font-size="8" style="fill:black">rel: stylesheet</text><text x="470" y="300" font-size="8" style="fill:black">type: text/css</text><text x="470" y="310" font-size="8" style="fill:black">href: estilo.css</text><rect x="240" y="370" width="200" height="40" style="fill:white;stroke:black;stroke-width:1" /><text x="250" y="380" font-size="10" style="fill:blue">body</text><path d="M220 40 C240 40 220 390 240 390" style="fill:transparent;stroke:black" /><rect x="460" y="370" width="200" height="40" style="fill:white;stroke:black;stroke-width:1" /><text x="470" y="380" font-size="10" style="fill:blue">header</text><path d="M440 390 C460 390 440 390 460 390" style="fill:transparent;stroke:black" /><rect x="680" y="370" width="200" height="40" style="fill:white;stroke:black;stroke-width:1" /><text x="690" y="380" font-size="10" style="fill:blue">h1</text><path d="M660 390 C680 390 660 390 680 390" style="fill:transparent;stroke:black" /><text x="690" y="390" font-size="8" style="fill:black">id: arriba</text><rect x="746" y="370" width="137" height="40" style="fill:green;stroke:black;stroke-width:1" /><text x="756" y="380" font-size="8" style="fill:white">Web Personal</text><rect x="680" y="420" width="200" height="40" style="fill:white;stroke:black;stroke-width:1" /><text x="690" y="430" font-size="10" style="fill:blue">p</text><path d="M660 390 C680 390 660 440 680 440" style="fill:transparent;stroke:black" /><rect x="746" y="420" width="137" height="40" style="fill:green;stroke:black;stroke-width:1" /><text x="756" y="430" font-size="8" style="fill:white">Página personal para la </text><rect x="900" y="420" width="200" height="40" style="fill:white;stroke:black;stroke-width:1" /><text x="910" y="430" font-size="10" style="fill:blue">a</text><path d="M880 440 C900 440 880 440 900 440" style="fill:transparent;stroke:black" /><text x="910" y="440" font-size="8" style="fill:black">href: https://www.campusvirtual.uniovi.es/course/view.php?id=1870</text><rect x="966" y="420" width="137" height="40" style="fill:green;stroke:black;stroke-width:1" /><text x="976" y="430" font-size="8" style="fill:white">asignatura de SEW</text><rect x="680" y="520" width="200" height="40" style="fill:white;stroke:black;stroke-width:1" /><text x="690" y="530" font-size="10" style="fill:blue">nav</text><path d="M660 390 C680 390 660 540 680 540" style="fill:transparent;stroke:black" /><rect x="900" y="520" width="200" height="40" style="fill:white;stroke:black;stroke-width:1" /><text x="910" y="530" font-size="10" style="fill:blue">ul</text><path d="M880 540 C900 540 880 540 900 540" style="fill:transparent;stroke:black" /><rect x="1120" y="520" width="200" height="40" style="fill:white;stroke:black;stroke-width:1" /><text x="1130" y="530" font-size="10" style="fill:blue">li</text><path d="M1100 540 C1120 540 1100 540 1120 540" style="fill:transparent;stroke:black" /><rect x="1340" y="520" width="200" height="40" style="fill:white;stroke:black;stroke-width:1" /><text x="1350" y="530" font-size="10" style="fill:blue">a</text><path d="M1320 540 C1340 540 1320 540 1340 540" style="fill:transparent;stroke:black" /><text x="1350" y="540" font-size="8" style="fill:black">href: index.html</text><text x="1350" y="550" font-size="8" style="fill:black">tabindex: 1</text><text x="1350" y="560" font-size="8" style="fill:black">accesskey: P</text><rect x="1406" y="520" width="137" height="40" style="fill:green;stroke:black;stroke-width:1" /><text x="1416" y="530" font-size="8" style="fill:white">Principal</text><rect x="1120" y="620" width="200" height="40" style="fill:white;stroke:black;stroke-width:1" /><text x="1130" y="630" font-size="10" style="fill:blue">li</text><path d="M1100 540 C1120 540 1100 640 1120 640" style="fill:transparent;stroke:black" /><rect x="1340" y="620" width="200" height="40" style="fill:white;stroke:black;stroke-width:1" /><text x="1350" y="630" font-size="10" style="fill:blue">a</text><path d="M1320 640 C1340 640 1320 640 1340 640" style="fill:transparent;stroke:black" /><text x="1350" y="640" font-size="8" style="fill:black">href: sew.html</text><text x="1350" y="650" font-size="8" style="fill:black">tabindex: 2</text><text x="1350" y="660" font-size="8" style="fill:black">accesskey: W</text><rect x="1406" y="620" width="137" height="40" style="fill:green;stroke:black;stroke-width:1" /><text x="1416" y="630" font-size="8" style="fill:white">SEW</text><rect x="1120" y="720" width="200" height="40" style="fill:white;stroke:black;stroke-width:1" /><text x="1130" y="730" font-size="10" style="fill:blue">li</text><path d="M1100 540 C1120 540 1100 740 1120 740" style="fill:transparent;stroke:black" /><rect x="1340" y="720" width="200" height="40" style="fill:white;stroke:black;stroke-width:1" /><text x="1350" y="730" font-size="10" style="fill:blue">a</text><path d="M1320 740 C1340 740 1320 740 1340 740" style="fill:transparent;stroke:black" /><text x="1350" y="740" font-size="8" style="fill:black">href: musica.html</text><text x="1350" y="750" font-size="8" style="fill:black">tabindex: 3</text><text x="1350" y="760" font-size="8" style="fill:black">accesskey: M</text><rect x="1406" y="720" width="137" height="40" style="fill:green;stroke:black;stroke-width:1" /><text x="1416" y="730" font-size="8" style="fill:white">Música</text><rect x="1120" y="820" width="200" height="40" style="fill:white;stroke:black;stroke-width:1" /><text x="1130" y="830" font-size="10" style="fill:blue">li</text><path d="M1100 540 C1120 540 1100 840 1120 840" style="fill:transparent;stroke:black" /><rect x="1340" y="820" width="200" height="40" style="fill:white;stroke:black;stroke-width:1" /><text x="1350" y="830" font-size="10" style="fill:blue">a</text><path d="M1320 840 C1340 840 1320 840 1340 840" style="fill:transparent;stroke:black" /><text x="1350" y="840" font-size="8" style="fill:black">href: videojuegos.html</text><text x="1350" y="850" font-size="8" style="fill:black">tabindex: 4</text><text x="1350" y="860" font-size="8" style="fill:black">accesskey: V</text><rect x="1406" y="820" width="137" height="40" style="fill:green;stroke:black;stroke-width:1" /><text x="1416" y="830" font-size="8" style="fill:white">Videojuegos</text><rect x="1120" y="920" width="200" height="40" style="fill:white;stroke:black;stroke-width:1" /><text x="1130" y="930" font-size="10" style="fill:blue">li</text><path d="M1100 540 C1120 540 1100 940 1120 940" style="fill:transparent;stroke:black" /><rect x="1340" y="920" width="200" height="40" style="fill:white;stroke:black;stroke-width:1" /><text x="1350" y="930" font-size="10" style="fill:blue">a</text><path d="M1320 940 C1340 940 1320 940 1340 940" style="fill:transparent;stroke:black" /><text x="1350" y="940" font-size="8" style="fill:black">href: series.html</text><text x="1350" y="950" font-size="8" style="fill:black">tabindex: 5</text><text x="1350" y="960" font-size="8" style="fill:black">accesskey: S</text><rect x="1406" y="920" width="137" height="40" style="fill:green;stroke:black;stroke-width:1" /><text x="1416" y="930" font-size="8" style="fill:white">Series</text><rect x="460" y="1170" width="200" height="40" style="fill:white;stroke:black;stroke-width:1" /><text x="470" y="1180" font-size="10" style="fill:blue">main</text><path d="M440 390 C460 390 440 1190 460 1190" style="fill:transparent;stroke:black" /><rect x="680" y="1170" width="200" height="40" style="fill:white;stroke:black;stroke-width:1" /><text x="690" y="1180" font-size="10" style="fill:blue">section</text><path d="M660 1190 C680 1190 660 1190 680 1190" style="fill:transparent;stroke:black" /><rect x="900" y="1170" width="200" height="40" style="fill:white;stroke:black;stroke-width:1" /><text x="910" y="1180" font-size="10" style="fill:blue">h2</text><path d="M880 1190 C900 1190 880 1190 900 1190" style="fill:transparent;stroke:black" /><rect x="966" y="1170" width="137" height="40" style="fill:green;stroke:black;stroke-width:1" /><text x="976" y="1180" font-size="8" style="fill:white">Datos personales:</text><rect x="900" y="1220" width="200" height="40" style="fill:white;stroke:black;stroke-width:1" /><text x="910" y="1230" font-size="10" style="fill:blue">p</text><path d="M880 1190 C900 1190 880 1240 900 1240" style="fill:transparent;stroke:black" /><rect x="966" y="1220" width="137" height="40" style="fill:green;stroke:black;stroke-width:1" /><text x="976" y="1230" font-size="8" style="fill:white">Nombre: Carlos Sanabria Miranda</text><rect x="900" y="1270" width="200" height="40" style="fill:white;stroke:black;stroke-width:1" /><text x="910" y="1280" font-size="10" style="fill:blue">img</text><path d="M880 1190 C900 1190 880 1290 900 1290" style="fill:transparent;stroke:black" /><text x="910" y="1290" font-size="8" style="fill:black">src: https://unioviedo-my.sharepoint.com/personal/uo250707_uniovi_es/_layouts/15/guestaccess.aspx?docid=04115b3f34e2e49ffb354a5c71bd38627&amp;authkey=AQ2a7uvqaZ0lR8HT4Xij9ik&amp;e=d9357dce21064dba84e5e2c6c4d697d4</text><text x="910" y="1300" font-size="8" style="fill:black">alt: Foto de perfil</text><text x="910" y="1310" font-size="8" style="fill:black">title: Foto de perfil</text><text x="910" y="1320" font-size="8" style="fill:black">width: 200</text><rect x="900" y="1320" width="200" height="40" style="fill:white;stroke:black;stroke-width:1" /><text x="910" y="1330" font-size="10" style="fill:blue">p</text><path d="M880 1190 C900 1190 880 1340 900 1340" style="fill:transparent;stroke:black" /><rect x="966" y="1320" width="137" height="40" style="fill:green;stroke:black;stroke-width:1" /><text x="976" y="1330" font-size="8" style="fill:white">UO: UO250707</text><rect x="900" y="1370" width="200" height="40" style="fill:white;stroke:black;stroke-width:1" /><text x="910" y="1380" font-size="10" style="fill:blue">p</text><path d="M880 1190 C900 1190 880 1390 900 1390" style="fill:transparent;stroke:black" /><rect x="966" y="1370" width="137" height="40" style="fill:green;stroke:black;stroke-width:1" /><text x="976" y="1380" font-size="8" style="fill:white">DNI: 53558678G</text><rect x="900" y="1420" width="200" height="40" style="fill:white;stroke:black;stroke-width:1" /><text x="910" y="1430" font-size="10" style="fill:blue">address</text><path d="M880 1190 C900 1190 880 1440 900 1440" style="fill:transparent;stroke:black" /><rect x="966" y="1420" width="137" height="40" style="fill:green;stroke:black;stroke-width:1" /><text x="976" y="1430" font-size="8" style="fill:white">Correo: </text><rect x="1120" y="1420" width="200" height="40" style="fill:white;stroke:black;stroke-width:1" /><text x="1130" y="1430" font-size="10" style="fill:blue">a</text><path d="M1100 1440 C1120 1440 1100 1440 1120 1440" style="fill:transparent;stroke:black" /><text x="1130" y="1440" font-size="8" style="fill:black">href: mailto:uo250707@uniovi.es</text><rect x="1186" y="1420" width="137" height="40" style="fill:green;stroke:black;stroke-width:1" /><text x="1196" y="1430" font-size="8" style="fill:white">uo250707@uniovi.es</text><rect x="460" y="1620" width="200" height="40" style="fill:white;stroke:black;stroke-width:1" /><text x="470" y="1630" font-size="10" style="fill:blue">footer</text><path d="M440 390 C460 390 440 1640 460 1640" style="fill:transparent;stroke:black" /><rect x="680" y="1620" width="200" height="40" style="fill:white;stroke:black;stroke-width:1" /><text x="690" y="1630" font-size="10" style="fill:blue">a</text><path d="M660 1640 C680 1640 660 1640 680 1640" style="fill:transparent;stroke:black" /><text x="690" y="1640" font-size="8" style="fill:black">href: #arriba</text><rect x="746" y="1620" width="137" height="40" style="fill:green;stroke:black;stroke-width:1" /><text x="756" y="1630" font-size="8" style="fill:white">Volver arriba</text><rect x="680" y="1670" width="200" height="40" style="fill:white;stroke:black;stroke-width:1" /><text x="690" y="1680" font-size="10" style="fill:blue">p</text><path d="M660 1640 C680 1640 660 1690 680 1690" style="fill:transparent;stroke:black" /><text x="690" y="1690" font-size="8" style="fill:black">lang: en</text><rect x="746" y="1670" width="137" height="40" style="fill:green;stroke:black;stroke-width:1" /><text x="756" y="1680" font-size="8" style="fill:white">Copyright © 2017 Carlos Sanabria Miranda</text><rect x="680" y="1720" width="200" height="40" style="fill:white;stroke:black;stroke-width:1" /><text x="690" y="1730" font-size="10" style="fill:blue">p</text><path d="M660 1640 C680 1640 660 1740 680 1740" style="fill:transparent;stroke:black" /><rect x="746" y="1720" width="137" height="40" style="fill:green;stroke:black;stroke-width:1" /><text x="756" y="1730" font-size="8" style="fill:white">Esta página web ha sido validada satisfactoriamente:</text><rect x="680" y="1770" width="200" height="40" style="fill:white;stroke:black;stroke-width:1" /><text x="690" y="1780" font-size="10" style="fill:blue">a</text><path d="M660 1640 C680 1640 660 1790 680 1790" style="fill:transparent;stroke:black" /><text x="690" y="1790" font-size="8" style="fill:black">href: https://validator.w3.org/check?uri=referer</text><rect x="900" y="1770" width="200" height="40" style="fill:white;stroke:black;stroke-width:1" /><text x="910" y="1780" font-size="10" style="fill:blue">img</text><path d="M880 1790 C900 1790 880 1790 900 1790" style="fill:transparent;stroke:black" /><text x="910" y="1790" font-size="8" style="fill:black">src: https://www.w3.org/html/logo/badge/html5-badge-h-solo.png</text><text x="910" y="1800" font-size="8" style="fill:black">alt: HTML5 Válido</text><text x="910" y="1810" font-size="8" style="fill:black">title: HTML5 Válido</text><rect x="680" y="1870" width="200" height="40" style="fill:white;stroke:black;stroke-width:1" /><text x="690" y="1880" font-size="10" style="fill:blue">a</text><path d="M660 1640 C680 1640 660 1890 680 1890" style="fill:transparent;stroke:black" /><text x="690" y="1890" font-size="8" style="fill:black">href:  http://jigsaw.w3.org/css-validator/check/referer </text><rect x="900" y="1870" width="200" height="40" style="fill:white;stroke:black;stroke-width:1" /><text x="910" y="1880" font-size="10" style="fill:blue">img</text><path d="M880 1890 C900 1890 880 1890 900 1890" style="fill:transparent;stroke:black" /><text x="910" y="1890" font-size="8" style="fill:black">src:  http://jigsaw.w3.org/css-validator/images/vcss</text><text x="910" y="1900" font-size="8" style="fill:black">alt: ¡CSS Válido!</text></svg>