<?xml version="1.0" encoding="utf-8"?><svg width="auto" height="5770" style="overflow:visible " version="1.1" xmlns="http://www.w3.org/2000/svg"><rect x="20" y="20" width="200" height="40" style="fill:white;stroke:black;stroke-width:1" /><text x="30" y="30" font-size="10" style="fill:blue">html</text><text x="30" y="40" font-size="8" style="fill:black">lang: es</text><rect x="240" y="20" width="200" height="40" style="fill:white;stroke:black;stroke-width:1" /><text x="250" y="30" font-size="10" style="fill:blue">head</text><path d="M220 40 C240 40 220 40 240 40" style="fill:transparent;stroke:black" /><rect x="460" y="20" width="200" height="40" style="fill:white;stroke:black;stroke-width:1" /><text x="470" y="30" font-size="10" style="fill:blue">meta</text><path d="M440 40 C460 40 440 40 460 40" style="fill:transparent;stroke:black" /><text x="470" y="40" font-size="8" style="fill:black">charset: UTF-8</text><rect x="460" y="70" width="200" height="40" style="fill:white;stroke:black;stroke-width:1" /><text x="470" y="80" font-size="10" style="fill:blue">meta</text><path d="M440 40 C460 40 440 90 460 90" style="fill:transparent;stroke:black" /><text x="470" y="90" font-size="8" style="fill:black">name: author</text><text x="470" y="100" font-size="8" style="fill:black">content: Carlos Sanabria Miranda</text><rect x="460" y="120" width="200" height="40" style="fill:white;stroke:black;stroke-width:1" /><text x="470" y="130" font-size="10" style="fill:blue">meta</text><path d="M440 40 C460 40 440 140 460 140" style="fill:transparent;stroke:black" /><text x="470" y="140" font-size="8" style="fill:black">name: description</text><text x="470" y="150" font-size="8" style="fill:black">content: Página personal para la asignatura de SEW</text><rect x="460" y="170" width="200" height="40" style="fill:white;stroke:black;stroke-width:1" /><text x="470" y="180" font-size="10" style="fill:blue">meta</text><path d="M440 40 C460 40 440 190 460 190" style="fill:transparent;stroke:black" /><text x="470" y="190" font-size="8" style="fill:black">name: keywords</text><text x="470" y="200" font-size="8" style="fill:black">content: personal,SEW,eii,software,estandares,web,uniovi,uo250707</text><rect x="460" y="220" width="200" height="40" style="fill:white;stroke:black;stroke-width:1" /><text x="470" y="230" font-size="10" style="fill:blue">title</text><path d="M440 40 C460 40 440 240 460 240" style="fill:transparent;stroke:black" /><rect x="526" y="220" width="137" height="40" style="fill:green;stroke:black;stroke-width:1" /><text x="536" y="230" font-size="8" style="fill:white">Web Personal</text><rect x="460" y="270" width="200" height="40" style="fill:white;stroke:black;stroke-width:1" /><text x="470" y="280" font-size="10" style="fill:blue">link</text><path d="M440 40 C460 40 440 290 460 290" style="fill:transparent;stroke:black" /><text x="470" y="290" font-size="8" style="fill:black">rel: stylesheet</text><text x="470" y="300" font-size="8" style="fill:black">type: text/css</text><text x="470" y="310" font-size="8" style="fill:black">href: estilo.css</text><rect x="240" y="370" width="200" height="40" style="fill:white;stroke:black;stroke-width:1" /><text x="250" y="380" font-size="10" style="fill:blue">body</text><path d="M220 40 C240 40 220 390 240 390" style="fill:transparent;stroke:black" /><rect x="460" y="370" width="200" height="40" style="fill:white;stroke:black;stroke-width:1" /><text x="470" y="380" font-size="10" style="fill:blue">header</text><path d="M440 390 C460 390 440 390 460 390" style="fill:transparent;stroke:black" /><rect x="680" y="370" width="200" height="40" style="fill:white;stroke:black;stroke-width:1" /><text x="690" y="380" font-size="10" style="fill:blue">h1</text><path d="M660 390 C680 390 660 390 680 390" style="fill:transparent;stroke:black" /><text x="690" y="390" font-size="8" style="fill:black">id: arriba</text><rect x="746" y="370" width="137" height="40" style="fill:green;stroke:black;stroke-width:1" /><text x="756" y="380" font-size="8" style="fill:white">Web Personal</text><rect x="680" y="420" width="200" height="40" style="fill:white;stroke:black;stroke-width:1" /><text x="690" y="430" font-size="10" style="fill:blue">p</text><path d="M660 390 C680 390 660 440 680 440" style="fill:transparent;stroke:black" /><rect x="746" y="420" width="137" height="40" style="fill:green;stroke:black;stroke-width:1" /><text x="756" y="430" font-size="8" style="fill:white">Página personal para la </text><rect x="900" y="420" width="200" height="40" style="fill:white;stroke:black;stroke-width:1" /><text x="910" y="430" font-size="10" style="fill:blue">a</text><path d="M880 440 C900 440 880 440 900 440" style="fill:transparent;stroke:black" /><text x="910" y="440" font-size="8" style="fill:black">href: https://www.campusvirtual.uniovi.es/course/view.php?id=1870</text><rect x="966" y="420" width="137" height="40" style="fill:green;stroke:black;stroke-width:1" /><text x="976" y="430" font-size="8" style="fill:white">asignatura de SEW</text><rect x="680" y="520" width="200" height="40" style="fill:white;stroke:black;stroke-width:1" /><text x="690" y="530" font-size="10" style="fill:blue">nav</text><path d="M660 390 C680 390 660 540 680 540" style="fill:transparent;stroke:black" /><rect x="900" y="520" width="200" height="40" style="fill:white;stroke:black;stroke-width:1" /><text x="910" y="530" font-size="10" style="fill:blue">ul</text><path d="M880 540 C900 540 880 540 900 540" style="fill:transparent;stroke:black" /><rect x="1120" y="520" width="200" height="40" style="fill:white;stroke:black;stroke-width:1" /><text x="1130" y="530" font-size="10" style="fill:blue">li</text><path d="M1100 540 C1120 540 1100 540 1120 540" style="fill:transparent;stroke:black" /><rect x="1340" y="520" width="200" height="40" style="fill:white;stroke:black;stroke-width:1" /><text x="1350" y="530" font-size="10" style="fill:blue">a</text><path d="M1320 540 C1340 540 1320 540 1340 540" style="fill:transparent;stroke:black" /><text x="1350" y="540" font-size="8" style="fill:black">href: index.html</text><text x="1350" y="550" font-size="8" style="fill:black">tabindex: 1</text><text x="1350" y="560" font-size="8" style="fill:black">accesskey: P</text><rect x="1406" y="520" width="137" height="40" style="fill:green;stroke:black;stroke-width:1" /><text x="1416" y="530" font-size="8" style="fill:white">Principal</text><rect x="1120" y="620" width="200" height="40" style="fill:white;stroke:black;stroke-width:1" /><text x="1130" y="630" font-size="10" style="fill:blue">li</text><path d="M1100 540 C1120 540 1100 640 1120 640" style="fill:transparent;stroke:black" /><rect x="1340" y="620" width="200" height="40" style="fill:white;stroke:black;stroke-width:1" /><text x="1350" y="630" font-size="10" style="fill:blue">a</text><path d="M1320 640 C1340 640 1320 640 1340 640" style="fill:transparent;stroke:black" /><text x="1350" y="640" font-size="8" style="fill:black">href: sew.html</text><text x="1350" y="650" font-size="8" style="fill:black">tabindex: 2</text><text x="1350" y="660" font-size="8" style="fill:black">accesskey: W</text><rect x="1406" y="620" width="137" height="40" style="fill:green;stroke:black;stroke-width:1" /><text x="1416" y="630" font-size="8" style="fill:white">SEW</text><rect x="1120" y="720" width="200" height="40" style="fill:white;stroke:black;stroke-width:1" /><text x="1130" y="730" font-size="10" style="fill:blue">li</text><path d="M1100 540 C1120 540 1100 740 1120 740" style="fill:transparent;stroke:black" /><rect x="1340" y="720" width="200" height="40" style="fill:white;stroke:black;stroke-width:1" /><text x="1350" y="730" font-size="10" style="fill:blue">a</text><path d="M1320 740 C1340 740 1320 740 1340 740" style="fill:transparent;stroke:black" /><text x="1350" y="740" font-size="8" style="fill:black">href: musica.html</text><text x="1350" y="750" font-size="8" style="fill:black">tabindex: 3</text><text x="1350" y="760" font-size="8" style="fill:black">accesskey: M</text><rect x="1406" y="720" width="137" height="40" style="fill:green;stroke:black;stroke-width:1" /><text x="1416" y="730" font-size="8" style="fill:white">Música</text><rect x="1120" y="820" width="200" height="40" style="fill:white;stroke:black;stroke-width:1" /><text x="1130" y="830" font-size="10" style="fill:blue">li</text><path d="M1100 540 C1120 540 1100 840 1120 840" style="fill:transparent;stroke:black" /><rect x="1340" y="820" width="200" height="40" style="fill:white;stroke:black;stroke-width:1" /><text x="1350" y="830" font-size="10" style="fill:blue">a</text><path d="M1320 840 C1340 840 1320 840 1340 840" style="fill:transparent;stroke:black" /><text x="1350" y="840" font-size="8" style="fill:black">href: videojuegos.html</text><text x="1350" y="850" font-size="8" style="fill:black">tabindex: 4</text><text x="1350" y="860" font-size="8" style="fill:black">accesskey: V</text><rect x="1406" y="820" width="137" height="40" style="fill:green;stroke:black;stroke-width:1" /><text x="1416" y="830" font-size="8" style="fill:white">Videojuegos</text><rect x="1120" y="920" width="200" height="40" style="fill:white;stroke:black;stroke-width:1" /><text x="1130" y="930" font-size="10" style="fill:blue">li</text><path d="M1100 540 C1120 540 1100 940 1120 940" style="fill:transparent;stroke:black" /><rect x="1340" y="920" width="200" height="40" style="fill:white;stroke:black;stroke-width:1" /><text x="1350" y="930" font-size="10" style="fill:blue">a</text><path d="M1320 940 C1340 940 1320 940 1340 940" style="fill:transparent;stroke:black" /><text x="1350" y="940" font-size="8" style="fill:black">href: series.html</text><text x="1350" y="950" font-size="8" style="fill:black">tabindex: 5</text><text x="1350" y="960" font-size="8" style="fill:black">accesskey: S</text><rect x="1406" y="920" width="137" height="40" style="fill:green;stroke:black;stroke-width:1" /><text x="1416" y="930" font-size="8" style="fill:white">Series</text><rect x="460" y="1170" width="200" height="40" style="fill:white;stroke:black;stroke-width:1" /><text x="470" y="1180" font-size="10" style="fill:blue">main</text><path d="M440 390 C460 390 440 1190 460 1190" style="fill:transparent;stroke:black" /><rect x="680" y="1170" width="200" height="40" style="fill:white;stroke:black;stroke-width:1" /><text x="690" y="1180" font-size="10" style="fill:blue">section</text><path d="M660 1190 C680 1190 660 1190 680 1190" style="fill:transparent;stroke:black" /><rect x="900" y="1170" width="200" height="40" style="fill:white;stroke:black;stroke-width:1" /><text x="910" y="1180" font-size="10" style="fill:blue">h2</text><path d="M880 1190 C900 1190 880 1190 900 1190" style="fill:transparent;stroke:black" /><rect x="966" y="1170" width="137" height="40" style="fill:green;stroke:black;stroke-width:1" /><text x="976" y="1180" font-size="8" style="fill:white">Música</text><rect x="900" y="1220" width="200" height="40" style="fill:white;stroke:black;stroke-width:1" /><text x="910" y="1230" font-size="10" style="fill:blue">p</text><path d="M880 1190 C900 1190 880 1240 900 1240" style="fill:transparent;stroke:black" /><rect x="966" y="1220" width="137" height="40" style="fill:green;stroke:black;stroke-width:1" /><text x="976" y="1230" font-size="8" style="fill:white">Una lista de algunos de mis artistas musicales favoritos:</text><rect x="900" y="1270" width="200" height="40" style="fill:white;stroke:black;stroke-width:1" /><text x="910" y="1280" font-size="10" style="fill:blue">dl</text><path d="M880 1190 C900 1190 880 1290 900 1290" style="fill:transparent;stroke:black" /><rect x="1120" y="1270" width="200" height="40" style="fill:white;stroke:black;stroke-width:1" /><text x="1130" y="1280" font-size="10" style="fill:blue">dt</text><path d="M1100 1290 C1120 1290 1100 1290 1120 1290" style="fill:transparent;stroke:black" /><rect x="1186" y="1270" width="137" height="40" style="fill:green;stroke:black;stroke-width:1" /><text x="1196" y="1280" font-size="8" style="fill:white">Ed Sheeran</text><rect x="1120" y="1320" width="200" height="40" style="fill:white;stroke:black;stroke-width:1" /><text x="1130" y="1330" font-size="10" style="fill:blue">dd</text><path d="M1100 1290 C1120 1290 1100 1340 1120 1340" style="fill:transparent;stroke:black" /><rect x="1340" y="1320" width="200" height="40" style="fill:white;stroke:black;stroke-width:1" /><text x="1350" y="1330" font-size="10" style="fill:blue">img</text><path d="M1320 1340 C1340 1340 1320 1340 1340 1340" style="fill:transparent;stroke:black" /><text x="1350" y="1340" font-size="8" style="fill:black">src: https://unioviedo-my.sharepoint.com/personal/uo250707_uniovi_es/_layouts/15/guestaccess.aspx?docid=075217398740641198a428731c2efc731&amp;authkey=AXJ3UsQCJbD5Y4Kp8vj0Z_8&amp;e=5db1fe8035f149df8119e721dff99846</text><text x="1350" y="1350" font-size="8" style="fill:black">alt: Ed Sheeran</text><text x="1350" y="1360" font-size="8" style="fill:black">title: Ed Sheeran</text><text x="1350" y="1370" font-size="8" style="fill:black">width: 200</text><rect x="1340" y="1370" width="200" height="40" style="fill:white;stroke:black;stroke-width:1" /><text x="1350" y="1380" font-size="10" style="fill:blue">p</text><path d="M1320 1340 C1340 1340 1320 1390 1340 1390" style="fill:transparent;stroke:black" /><rect x="1406" y="1370" width="137" height="40" style="fill:green;stroke:black;stroke-width:1" /><text x="1416" y="1380" font-size="8" style="fill:white">Cantante y compositor británico</text><rect x="1340" y="1420" width="200" height="40" style="fill:white;stroke:black;stroke-width:1" /><text x="1350" y="1430" font-size="10" style="fill:blue">p</text><path d="M1320 1340 C1340 1340 1320 1440 1340 1440" style="fill:transparent;stroke:black" /><rect x="1406" y="1420" width="137" height="40" style="fill:green;stroke:black;stroke-width:1" /><text x="1416" y="1430" font-size="8" style="fill:white">Géneros: Pop, acústica y folk</text><rect x="1340" y="1470" width="200" height="40" style="fill:white;stroke:black;stroke-width:1" /><text x="1350" y="1480" font-size="10" style="fill:blue">p</text><path d="M1320 1340 C1340 1340 1320 1490 1340 1490" style="fill:transparent;stroke:black" /><rect x="1406" y="1470" width="137" height="40" style="fill:green;stroke:black;stroke-width:1" /><text x="1416" y="1480" font-size="8" style="fill:white">Escúchalo en:</text><rect x="1340" y="1520" width="200" height="40" style="fill:white;stroke:black;stroke-width:1" /><text x="1350" y="1530" font-size="10" style="fill:blue">ul</text><path d="M1320 1340 C1340 1340 1320 1540 1340 1540" style="fill:transparent;stroke:black" /><rect x="1560" y="1520" width="200" height="40" style="fill:white;stroke:black;stroke-width:1" /><text x="1570" y="1530" font-size="10" style="fill:blue">li</text><path d="M1540 1540 C1560 1540 1540 1540 1560 1540" style="fill:transparent;stroke:black" /><rect x="1780" y="1520" width="200" height="40" style="fill:white;stroke:black;stroke-width:1" /><text x="1790" y="1530" font-size="10" style="fill:blue">a</text><path d="M1760 1540 C1780 1540 1760 1540 1780 1540" style="fill:transparent;stroke:black" /><text x="1790" y="1540" font-size="8" style="fill:black">href: https://open.spotify.com/artist/6eUKZXaKkcviH0Ku9w2n3V?autoplay=true</text><rect x="1846" y="1520" width="137" height="40" style="fill:green;stroke:black;stroke-width:1" /><text x="1856" y="1530" font-size="8" style="fill:white">Spotify - Ed Sheeran</text><rect x="1560" y="1620" width="200" height="40" style="fill:white;stroke:black;stroke-width:1" /><text x="1570" y="1630" font-size="10" style="fill:blue">li</text><path d="M1540 1540 C1560 1540 1540 1640 1560 1640" style="fill:transparent;stroke:black" /><rect x="1780" y="1620" width="200" height="40" style="fill:white;stroke:black;stroke-width:1" /><text x="1790" y="1630" font-size="10" style="fill:blue">a</text><path d="M1760 1640 C1780 1640 1760 1640 1780 1640" style="fill:transparent;stroke:black" /><text x="1790" y="1640" font-size="8" style="fill:black">href: https://www.youtube.com/playlist?playnext=1&amp;list=PLaq655wqcKDnUvTOizhqwNCiiF_grL1vh&amp;feature=gws_kp_artist</text><rect x="1846" y="1620" width="137" height="40" style="fill:green;stroke:black;stroke-width:1" /><text x="1856" y="1630" font-size="8" style="fill:white">Youtube - Ed Sheeran</text><rect x="1120" y="1820" width="200" height="40" style="fill:white;stroke:black;stroke-width:1" /><text x="1130" y="1830" font-size="10" style="fill:blue">dt</text><path d="M1100 1290 C1120 1290 1100 1840 1120 1840" style="fill:transparent;stroke:black" /><rect x="1186" y="1820" width="137" height="40" style="fill:green;stroke:black;stroke-width:1" /><text x="1196" y="1830" font-size="8" style="fill:white">Melendi</text><rect x="1120" y="1870" width="200" height="40" style="fill:white;stroke:black;stroke-width:1" /><text x="1130" y="1880" font-size="10" style="fill:blue">dd</text><path d="M1100 1290 C1120 1290 1100 1890 1120 1890" style="fill:transparent;stroke:black" /><rect x="1340" y="1870" width="200" height="40" style="fill:white;stroke:black;stroke-width:1" /><text x="1350" y="1880" font-size="10" style="fill:blue">img</text><path d="M1320 1890 C1340 1890 1320 1890 1340 1890" style="fill:transparent;stroke:black" /><text x="1350" y="1890" font-size="8" style="fill:black">src: https://unioviedo-my.sharepoint.com/personal/uo250707_uniovi_es/_layouts/15/guestaccess.aspx?docid=0ee033640f2a840a5b645b382d21e5ee7&amp;authkey=Aciswz0c81XtEQw-5B6WCc8&amp;e=e45e352fd35048a380611b54d490c53e</text><text x="1350" y="1900" font-size="8" style="fill:black">alt: Melendi</text><text x="1350" y="1910" font-size="8" style="fill:black">title: Melendi</text><text x="1350" y="1920" font-size="8" style="fill:black">width: 200</text><rect x="1340" y="1920" width="200" height="40" style="fill:white;stroke:black;stroke-width:1" /><text x="1350" y="1930" font-size="10" style="fill:blue">p</text><path d="M1320 1890 C1340 1890 1320 1940 1340 1940" style="fill:transparent;stroke:black" /><rect x="1406" y="1920" width="137" height="40" style="fill:green;stroke:black;stroke-width:1" /><text x="1416" y="1930" font-size="8" style="fill:white">Cantautor español</text><rect x="1340" y="1970" width="200" height="40" style="fill:white;stroke:black;stroke-width:1" /><text x="1350" y="1980" font-size="10" style="fill:blue">p</text><path d="M1320 1890 C1340 1890 1320 1990 1340 1990" style="fill:transparent;stroke:black" /><rect x="1406" y="1970" width="137" height="40" style="fill:green;stroke:black;stroke-width:1" /><text x="1416" y="1980" font-size="8" style="fill:white">Géneros: Rock, rumba pop y pop rock</text><rect x="1340" y="2020" width="200" height="40" style="fill:white;stroke:black;stroke-width:1" /><text x="1350" y="2030" font-size="10" style="fill:blue">p</text><path d="M1320 1890 C1340 1890 1320 2040 1340 2040" style="fill:transparent;stroke:black" /><rect x="1406" y="2020" width="137" height="40" style="fill:green;stroke:black;stroke-width:1" /><text x="1416" y="2030" font-size="8" style="fill:white">Escúchalo en:</text><rect x="1340" y="2070" width="200" height="40" style="fill:white;stroke:black;stroke-width:1" /><text x="1350" y="2080" font-size="10" style="fill:blue">ul</text><path d="M1320 1890 C1340 1890 1320 2090 1340 2090" style="fill:transparent;stroke:black" /><rect x="1560" y="2070" width="200" height="40" style="fill:white;stroke:black;stroke-width:1" /><text x="1570" y="2080" font-size="10" style="fill:blue">li</text><path d="M1540 2090 C1560 2090 1540 2090 1560 2090" style="fill:transparent;stroke:black" /><rect x="1780" y="2070" width="200" height="40" style="fill:white;stroke:black;stroke-width:1" /><text x="1790" y="2080" font-size="10" style="fill:blue">a</text><path d="M1760 2090 C1780 2090 1760 2090 1780 2090" style="fill:transparent;stroke:black" /><text x="1790" y="2090" font-size="8" style="fill:black">href: https://open.spotify.com/artist/1EXjXQpDx2pROygh8zvHs4?autoplay=true</text><rect x="1846" y="2070" width="137" height="40" style="fill:green;stroke:black;stroke-width:1" /><text x="1856" y="2080" font-size="8" style="fill:white">Spotify - Melendi</text><rect x="1560" y="2170" width="200" height="40" style="fill:white;stroke:black;stroke-width:1" /><text x="1570" y="2180" font-size="10" style="fill:blue">li</text><path d="M1540 2090 C1560 2090 1540 2190 1560 2190" style="fill:transparent;stroke:black" /><rect x="1780" y="2170" width="200" height="40" style="fill:white;stroke:black;stroke-width:1" /><text x="1790" y="2180" font-size="10" style="fill:blue">a</text><path d="M1760 2190 C1780 2190 1760 2190 1780 2190" style="fill:transparent;stroke:black" /><text x="1790" y="2190" font-size="8" style="fill:black">href: https://www.youtube.com/watch?v=D9W4DLjmoOM&amp;list=PLc2K3yfrOjcYn-mKAgCT-mAsfaRzMarO6</text><rect x="1846" y="2170" width="137" height="40" style="fill:green;stroke:black;stroke-width:1" /><text x="1856" y="2180" font-size="8" style="fill:white">Youtube - Melendi</text><rect x="1120" y="2370" width="200" height="40" style="fill:white;stroke:black;stroke-width:1" /><text x="1130" y="2380" font-size="10" style="fill:blue">dt</text><path d="M1100 1290 C1120 1290 1100 2390 1120 2390" style="fill:transparent;stroke:black" /><rect x="1186" y="2370" width="137" height="40" style="fill:green;stroke:black;stroke-width:1" /><text x="1196" y="2380" font-size="8" style="fill:white">M Clan</text><rect x="1120" y="2420" width="200" height="40" style="fill:white;stroke:black;stroke-width:1" /><text x="1130" y="2430" font-size="10" style="fill:blue">dd</text><path d="M1100 1290 C1120 1290 1100 2440 1120 2440" style="fill:transparent;stroke:black" /><rect x="1340" y="2420" width="200" height="40" style="fill:white;stroke:black;stroke-width:1" /><text x="1350" y="2430" font-size="10" style="fill:blue">img</text><path d="M1320 2440 C1340 2440 1320 2440 1340 2440" style="fill:transparent;stroke:black" /><text x="1350" y="2440" font-size="8" style="fill:black">src: https://unioviedo-my.sharepoint.com/personal/uo250707_uniovi_es/_layouts/15/guestaccess.aspx?docid=054c2af8a13094b9a92b0d2355e21da63&amp;authkey=AeJRcUysur3G7piVR3kpjN8&amp;e=7638cb29018c47338bc557276808c4a8</text><text x="1350" y="2450" font-size="8" style="fill:black">alt: M Clan</text><text x="1350" y="2460" font-size="8" style="fill:black">title: M Clan</text><text x="1350" y="2470" font-size="8" style="fill:black">width: 200</text><rect x="1340" y="2470" width="200" height="40" style="fill:white;stroke:black;stroke-width:1" /><text x="1350" y="2480" font-size="10" style="fill:blue">p</text><path d="M1320 2440 C1340 2440 1320 2490 1340 2490" style="fill:transparent;stroke:black" /><rect x="1406" y="2470" width="137" height="40" style="fill:green;stroke:black;stroke-width:1" /><text x="1416" y="2480" font-size="8" style="fill:white">Grupo español de rock</text><rect x="1340" y="2520" width="200" height="40" style="fill:white;stroke:black;stroke-width:1" /><text x="1350" y="2530" font-size="10" style="fill:blue">p</text><path d="M1320 2440 C1340 2440 1320 2540 1340 2540" style="fill:transparent;stroke:black" /><rect x="1406" y="2520" width="137" height="40" style="fill:green;stroke:black;stroke-width:1" /><text x="1416" y="2530" font-size="8" style="fill:white">Géneros: Rock, Rock and roll, Rock sureño, Pop rock, Soul rock, Blues rock, Folk rock y Country</text><rect x="1340" y="2570" width="200" height="40" style="fill:white;stroke:black;stroke-width:1" /><text x="1350" y="2580" font-size="10" style="fill:blue">p</text><path d="M1320 2440 C1340 2440 1320 2590 1340 2590" style="fill:transparent;stroke:black" /><rect x="1406" y="2570" width="137" height="40" style="fill:green;stroke:black;stroke-width:1" /><text x="1416" y="2580" font-size="8" style="fill:white">Escúchalo en:</text><rect x="1340" y="2620" width="200" height="40" style="fill:white;stroke:black;stroke-width:1" /><text x="1350" y="2630" font-size="10" style="fill:blue">ul</text><path d="M1320 2440 C1340 2440 1320 2640 1340 2640" style="fill:transparent;stroke:black" /><rect x="1560" y="2620" width="200" height="40" style="fill:white;stroke:black;stroke-width:1" /><text x="1570" y="2630" font-size="10" style="fill:blue">li</text><path d="M1540 2640 C1560 2640 1540 2640 1560 2640" style="fill:transparent;stroke:black" /><rect x="1780" y="2620" width="200" height="40" style="fill:white;stroke:black;stroke-width:1" /><text x="1790" y="2630" font-size="10" style="fill:blue">a</text><path d="M1760 2640 C1780 2640 1760 2640 1780 2640" style="fill:transparent;stroke:black" /><text x="1790" y="2640" font-size="8" style="fill:black">href: https://open.spotify.com/artist/4oVqMVHC03xnYJ7fyb1dh6?autoplay=true</text><rect x="1846" y="2620" width="137" height="40" style="fill:green;stroke:black;stroke-width:1" /><text x="1856" y="2630" font-size="8" style="fill:white">Spotify - M Clan</text><rect x="1560" y="2720" width="200" height="40" style="fill:white;stroke:black;stroke-width:1" /><text x="1570" y="2730" font-size="10" style="fill:blue">li</text><path d="M1540 2640 C1560 2640 1540 2740 1560 2740" style="fill:transparent;stroke:black" /><rect x="1780" y="2720" width="200" height="40" style="fill:white;stroke:black;stroke-width:1" /><text x="1790" y="2730" font-size="10" style="fill:blue">a</text><path d="M1760 2740 C1780 2740 1760 2740 1780 2740" style="fill:transparent;stroke:black" /><text x="1790" y="2740" font-size="8" style="fill:black">href: https://www.youtube.com/watch?v=hEKJnaHwihw&amp;list=PLLsIO2RaTOnXlUndd7F44167xD5lcVAE0</text><rect x="1846" y="2720" width="137" height="40" style="fill:green;stroke:black;stroke-width:1" /><text x="1856" y="2730" font-size="8" style="fill:white">Youtube - M Clan</text><rect x="1120" y="2920" width="200" height="40" style="fill:white;stroke:black;stroke-width:1" /><text x="1130" y="2930" font-size="10" style="fill:blue">dt</text><path d="M1100 1290 C1120 1290 1100 2940 1120 2940" style="fill:transparent;stroke:black" /><rect x="1186" y="2920" width="137" height="40" style="fill:green;stroke:black;stroke-width:1" /><text x="1196" y="2930" font-size="8" style="fill:white">Bruno Mars</text><rect x="1120" y="2970" width="200" height="40" style="fill:white;stroke:black;stroke-width:1" /><text x="1130" y="2980" font-size="10" style="fill:blue">dd</text><path d="M1100 1290 C1120 1290 1100 2990 1120 2990" style="fill:transparent;stroke:black" /><rect x="1340" y="2970" width="200" height="40" style="fill:white;stroke:black;stroke-width:1" /><text x="1350" y="2980" font-size="10" style="fill:blue">img</text><path d="M1320 2990 C1340 2990 1320 2990 1340 2990" style="fill:transparent;stroke:black" /><text x="1350" y="2990" font-size="8" style="fill:black">src: https://unioviedo-my.sharepoint.com/personal/uo250707_uniovi_es/_layouts/15/guestaccess.aspx?docid=0bcb8dc9d2e8a4a61a69023b7052bf2f3&amp;authkey=ARDARWaBPKQfQPAwpGtfNuU&amp;e=efdc82c6cdae4b278c55b748971553a2</text><text x="1350" y="3000" font-size="8" style="fill:black">alt: Bruno Mars</text><text x="1350" y="3010" font-size="8" style="fill:black">title: Bruno Mars</text><text x="1350" y="3020" font-size="8" style="fill:black">width: 200</text><rect x="1340" y="3020" width="200" height="40" style="fill:white;stroke:black;stroke-width:1" /><text x="1350" y="3030" font-size="10" style="fill:blue">p</text><path d="M1320 2990 C1340 2990 1320 3040 1340 3040" style="fill:transparent;stroke:black" /><rect x="1406" y="3020" width="137" height="40" style="fill:green;stroke:black;stroke-width:1" /><text x="1416" y="3030" font-size="8" style="fill:white">Cantante, compositor, productor musical y coreógrafo estadounidense</text><rect x="1340" y="3070" width="200" height="40" style="fill:white;stroke:black;stroke-width:1" /><text x="1350" y="3080" font-size="10" style="fill:blue">p</text><path d="M1320 2990 C1340 2990 1320 3090 1340 3090" style="fill:transparent;stroke:black" /><rect x="1406" y="3070" width="137" height="40" style="fill:green;stroke:black;stroke-width:1" /><text x="1416" y="3080" font-size="8" style="fill:white">Géneros: Pop, reggae, funk, soul, hip hop, disco y rock</text><rect x="1340" y="3120" width="200" height="40" style="fill:white;stroke:black;stroke-width:1" /><text x="1350" y="3130" font-size="10" style="fill:blue">p</text><path d="M1320 2990 C1340 2990 1320 3140 1340 3140" style="fill:transparent;stroke:black" /><rect x="1406" y="3120" width="137" height="40" style="fill:green;stroke:black;stroke-width:1" /><text x="1416" y="3130" font-size="8" style="fill:white">Escúchalo en:</text><rect x="1340" y="3170" width="200" height="40" style="fill:white;stroke:black;stroke-width:1" /><text x="1350" y="3180" font-size="10" style="fill:blue">ul</text><path d="M1320 2990 C1340 2990 1320 3190 1340 3190" style="fill:transparent;stroke:black" /><rect x="1560" y="3170" width="200" height="40" style="fill:white;stroke:black;stroke-width:1" /><text x="1570" y="3180" font-size="10" style="fill:blue">li</text><path d="M1540 3190 C1560 3190 1540 3190 1560 3190" style="fill:transparent;stroke:black" /><rect x="1780" y="3170" width="200" height="40" style="fill:white;stroke:black;stroke-width:1" /><text x="1790" y="3180" font-size="10" style="fill:blue">a</text><path d="M1760 3190 C1780 3190 1760 3190 1780 3190" style="fill:transparent;stroke:black" /><text x="1790" y="3190" font-size="8" style="fill:black">href: https://open.spotify.com/artist/0du5cEVh5yTK9QJze8zA0C?autoplay=true</text><rect x="1846" y="3170" width="137" height="40" style="fill:green;stroke:black;stroke-width:1" /><text x="1856" y="3180" font-size="8" style="fill:white">Spotify - Bruno Mars</text><rect x="1560" y="3270" width="200" height="40" style="fill:white;stroke:black;stroke-width:1" /><text x="1570" y="3280" font-size="10" style="fill:blue">li</text><path d="M1540 3190 C1560 3190 1540 3290 1560 3290" style="fill:transparent;stroke:black" /><rect x="1780" y="3270" width="200" height="40" style="fill:white;stroke:black;stroke-width:1" /><text x="1790" y="3280" font-size="10" style="fill:blue">a</text><path d="M1760 3290 C1780 3290 1760 3290 1780 3290" style="fill:transparent;stroke:black" /><text x="1790" y="3290" font-size="8" style="fill:black">href: https://www.youtube.com/watch?v=PMivT7MJ41M&amp;list=PLI6Wzy3GVpd7ePeUKE-E4YhSYvbFYNRXN</text><rect x="1846" y="3270" width="137" height="40" style="fill:green;stroke:black;stroke-width:1" /><text x="1856" y="3280" font-size="8" style="fill:white">Youtube - Bruno Mars</text><rect x="1120" y="3470" width="200" height="40" style="fill:white;stroke:black;stroke-width:1" /><text x="1130" y="3480" font-size="10" style="fill:blue">dt</text><path d="M1100 1290 C1120 1290 1100 3490 1120 3490" style="fill:transparent;stroke:black" /><rect x="1186" y="3470" width="137" height="40" style="fill:green;stroke:black;stroke-width:1" /><text x="1196" y="3480" font-size="8" style="fill:white">Maroon 5</text><rect x="1120" y="3520" width="200" height="40" style="fill:white;stroke:black;stroke-width:1" /><text x="1130" y="3530" font-size="10" style="fill:blue">dd</text><path d="M1100 1290 C1120 1290 1100 3540 1120 3540" style="fill:transparent;stroke:black" /><rect x="1340" y="3520" width="200" height="40" style="fill:white;stroke:black;stroke-width:1" /><text x="1350" y="3530" font-size="10" style="fill:blue">img</text><path d="M1320 3540 C1340 3540 1320 3540 1340 3540" style="fill:transparent;stroke:black" /><text x="1350" y="3540" font-size="8" style="fill:black">src: https://unioviedo-my.sharepoint.com/personal/uo250707_uniovi_es/_layouts/15/guestaccess.aspx?docid=032349eb8e3a14ebd8ff661e3dfc887df&amp;authkey=Ae_emkEHEGVVQzaT1hKiMt0&amp;e=228e4d9fe87948c98c3c76b16a165027</text><text x="1350" y="3550" font-size="8" style="fill:black">alt: Maroon 5</text><text x="1350" y="3560" font-size="8" style="fill:black">title: Maroon 5</text><text x="1350" y="3570" font-size="8" style="fill:black">width: 200</text><rect x="1340" y="3570" width="200" height="40" style="fill:white;stroke:black;stroke-width:1" /><text x="1350" y="3580" font-size="10" style="fill:blue">p</text><path d="M1320 3540 C1340 3540 1320 3590 1340 3590" style="fill:transparent;stroke:black" /><rect x="1406" y="3570" width="137" height="40" style="fill:green;stroke:black;stroke-width:1" /><text x="1416" y="3580" font-size="8" style="fill:white">Banda musical de Rock y Pop Rock estadounidense</text><rect x="1340" y="3620" width="200" height="40" style="fill:white;stroke:black;stroke-width:1" /><text x="1350" y="3630" font-size="10" style="fill:blue">p</text><path d="M1320 3540 C1340 3540 1320 3640 1340 3640" style="fill:transparent;stroke:black" /><rect x="1406" y="3620" width="137" height="40" style="fill:green;stroke:black;stroke-width:1" /><text x="1416" y="3630" font-size="8" style="fill:white">Géneros: Pop rock, rock, rock alternativo, pop, dance-pop, electropop y funk rock</text><rect x="1340" y="3670" width="200" height="40" style="fill:white;stroke:black;stroke-width:1" /><text x="1350" y="3680" font-size="10" style="fill:blue">p</text><path d="M1320 3540 C1340 3540 1320 3690 1340 3690" style="fill:transparent;stroke:black" /><rect x="1406" y="3670" width="137" height="40" style="fill:green;stroke:black;stroke-width:1" /><text x="1416" y="3680" font-size="8" style="fill:white">Escúchalo en:</text><rect x="1340" y="3720" width="200" height="40" style="fill:white;stroke:black;stroke-width:1" /><text x="1350" y="3730" font-size="10" style="fill:blue">ul</text><path d="M1320 3540 C1340 3540 1320 3740 1340 3740" style="fill:transparent;stroke:black" /><rect x="1560" y="3720" width="200" height="40" style="fill:white;stroke:black;stroke-width:1" /><text x="1570" y="3730" font-size="10" style="fill:blue">li</text><path d="M1540 3740 C1560 3740 1540 3740 1560 3740" style="fill:transparent;stroke:black" /><rect x="1780" y="3720" width="200" height="40" style="fill:white;stroke:black;stroke-width:1" /><text x="1790" y="3730" font-size="10" style="fill:blue">a</text><path d="M1760 3740 C1780 3740 1760 3740 1780 3740" style="fill:transparent;stroke:black" /><text x="1790" y="3740" font-size="8" style="fill:black">href: https://open.spotify.com/artist/04gDigrS5kc9YWfZHwBETP?autoplay=true</text><rect x="1846" y="3720" width="137" height="40" style="fill:green;stroke:black;stroke-width:1" /><text x="1856" y="3730" font-size="8" style="fill:white">Spotify - Maroon 5</text><rect x="1560" y="3820" width="200" height="40" style="fill:white;stroke:black;stroke-width:1" /><text x="1570" y="3830" font-size="10" style="fill:blue">li</text><path d="M1540 3740 C1560 3740 1540 3840 1560 3840" style="fill:transparent;stroke:black" /><rect x="1780" y="3820" width="200" height="40" style="fill:white;stroke:black;stroke-width:1" /><text x="1790" y="3830" font-size="10" style="fill:blue">a</text><path d="M1760 3840 C1780 3840 1760 3840 1780 3840" style="fill:transparent;stroke:black" /><text x="1790" y="3840" font-size="8" style="fill:black">href: https://www.youtube.com/watch?v=09R8_2nJtjg&amp;list=PLIXR_3Q6owLZfSuihTnxMF8JRGPzX8Kon</text><rect x="1846" y="3820" width="137" height="40" style="fill:green;stroke:black;stroke-width:1" /><text x="1856" y="3830" font-size="8" style="fill:white">Youtube - Maroon 5</text><rect x="1120" y="4020" width="200" height="40" style="fill:white;stroke:black;stroke-width:1" /><text x="1130" y="4030" font-size="10" style="fill:blue">dt</text><path d="M1100 1290 C1120 1290 1100 4040 1120 4040" style="fill:transparent;stroke:black" /><rect x="1186" y="4020" width="137" height="40" style="fill:green;stroke:black;stroke-width:1" /><text x="1196" y="4030" font-size="8" style="fill:white">Green Day</text><rect x="1120" y="4070" width="200" height="40" style="fill:white;stroke:black;stroke-width:1" /><text x="1130" y="4080" font-size="10" style="fill:blue">dd</text><path d="M1100 1290 C1120 1290 1100 4090 1120 4090" style="fill:transparent;stroke:black" /><rect x="1340" y="4070" width="200" height="40" style="fill:white;stroke:black;stroke-width:1" /><text x="1350" y="4080" font-size="10" style="fill:blue">img</text><path d="M1320 4090 C1340 4090 1320 4090 1340 4090" style="fill:transparent;stroke:black" /><text x="1350" y="4090" font-size="8" style="fill:black">src: https://unioviedo-my.sharepoint.com/personal/uo250707_uniovi_es/_layouts/15/guestaccess.aspx?docid=04f03e63eb2eb44b395b730e867b373a2&amp;authkey=AYkRkZ8DQVbOy1yQn_YceaE&amp;e=6266026e146c498288a27a7c9432c68e</text><text x="1350" y="4100" font-size="8" style="fill:black">alt: Green Day</text><text x="1350" y="4110" font-size="8" style="fill:black">title: Green Day</text><text x="1350" y="4120" font-size="8" style="fill:black">width: 200</text><rect x="1340" y="4120" width="200" height="40" style="fill:white;stroke:black;stroke-width:1" /><text x="1350" y="4130" font-size="10" style="fill:blue">p</text><path d="M1320 4090 C1340 4090 1320 4140 1340 4140" style="fill:transparent;stroke:black" /><rect x="1406" y="4120" width="137" height="40" style="fill:green;stroke:black;stroke-width:1" /><text x="1416" y="4130" font-size="8" style="fill:white">Banda estadounidense de pop punk y punk rock</text><rect x="1340" y="4170" width="200" height="40" style="fill:white;stroke:black;stroke-width:1" /><text x="1350" y="4180" font-size="10" style="fill:blue">p</text><path d="M1320 4090 C1340 4090 1320 4190 1340 4190" style="fill:transparent;stroke:black" /><rect x="1406" y="4170" width="137" height="40" style="fill:green;stroke:black;stroke-width:1" /><text x="1416" y="4180" font-size="8" style="fill:white">Géneros: Pop punk, Punk rock y Rock alternativo</text><rect x="1340" y="4220" width="200" height="40" style="fill:white;stroke:black;stroke-width:1" /><text x="1350" y="4230" font-size="10" style="fill:blue">p</text><path d="M1320 4090 C1340 4090 1320 4240 1340 4240" style="fill:transparent;stroke:black" /><rect x="1406" y="4220" width="137" height="40" style="fill:green;stroke:black;stroke-width:1" /><text x="1416" y="4230" font-size="8" style="fill:white">Escúchalo en:</text><rect x="1340" y="4270" width="200" height="40" style="fill:white;stroke:black;stroke-width:1" /><text x="1350" y="4280" font-size="10" style="fill:blue">ul</text><path d="M1320 4090 C1340 4090 1320 4290 1340 4290" style="fill:transparent;stroke:black" /><rect x="1560" y="4270" width="200" height="40" style="fill:white;stroke:black;stroke-width:1" /><text x="1570" y="4280" font-size="10" style="fill:blue">li</text><path d="M1540 4290 C1560 4290 1540 4290 1560 4290" style="fill:transparent;stroke:black" /><rect x="1780" y="4270" width="200" height="40" style="fill:white;stroke:black;stroke-width:1" /><text x="1790" y="4280" font-size="10" style="fill:blue">a</text><path d="M1760 4290 C1780 4290 1760 4290 1780 4290" style="fill:transparent;stroke:black" /><text x="1790" y="4290" font-size="8" style="fill:black">href: https://open.spotify.com/artist/7oPftvlwr6VrsViSDV7fJY?autoplay=true</text><rect x="1846" y="4270" width="137" height="40" style="fill:green;stroke:black;stroke-width:1" /><text x="1856" y="4280" font-size="8" style="fill:white">Spotify - Green Day</text><rect x="1560" y="4370" width="200" height="40" style="fill:white;stroke:black;stroke-width:1" /><text x="1570" y="4380" font-size="10" style="fill:blue">li</text><path d="M1540 4290 C1560 4290 1540 4390 1560 4390" style="fill:transparent;stroke:black" /><rect x="1780" y="4370" width="200" height="40" style="fill:white;stroke:black;stroke-width:1" /><text x="1790" y="4380" font-size="10" style="fill:blue">a</text><path d="M1760 4390 C1780 4390 1760 4390 1780 4390" style="fill:transparent;stroke:black" /><text x="1790" y="4390" font-size="8" style="fill:black">href: https://www.youtube.com/watch?v=Soa3gO7tL-c&amp;list=PLo6aG-353Cqkrei8GU5adW9ZDbW_5Nl1X</text><rect x="1846" y="4370" width="137" height="40" style="fill:green;stroke:black;stroke-width:1" /><text x="1856" y="4380" font-size="8" style="fill:white">Youtube - Green Day</text><rect x="1120" y="4570" width="200" height="40" style="fill:white;stroke:black;stroke-width:1" /><text x="1130" y="4580" font-size="10" style="fill:blue">dt</text><path d="M1100 1290 C1120 1290 1100 4590 1120 4590" style="fill:transparent;stroke:black" /><rect x="1186" y="4570" width="137" height="40" style="fill:green;stroke:black;stroke-width:1" /><text x="1196" y="4580" font-size="8" style="fill:white">Red Hot Chili Peppers</text><rect x="1120" y="4620" width="200" height="40" style="fill:white;stroke:black;stroke-width:1" /><text x="1130" y="4630" font-size="10" style="fill:blue">dd</text><path d="M1100 1290 C1120 1290 1100 4640 1120 4640" style="fill:transparent;stroke:black" /><rect x="1340" y="4620" width="200" height="40" style="fill:white;stroke:black;stroke-width:1" /><text x="1350" y="4630" font-size="10" style="fill:blue">img</text><path d="M1320 4640 C1340 4640 1320 4640 1340 4640" style="fill:transparent;stroke:black" /><text x="1350" y="4640" font-size="8" style="fill:black">src: https://unioviedo-my.sharepoint.com/personal/uo250707_uniovi_es/_layouts/15/guestaccess.aspx?docid=0856e4249c26e4ad691f75838a60df399&amp;authkey=AZCzoxhf-BzNnkD3R5dNEcM&amp;e=5f4e66cbc8464d20825414911b2e84ee</text><text x="1350" y="4650" font-size="8" style="fill:black">alt: Red Hot Chili Peppers</text><text x="1350" y="4660" font-size="8" style="fill:black">title: Red Hot Chili Peppers</text><text x="1350" y="4670" font-size="8" style="fill:black">width: 200</text><rect x="1340" y="4670" width="200" height="40" style="fill:white;stroke:black;stroke-width:1" /><text x="1350" y="4680" font-size="10" style="fill:blue">p</text><path d="M1320 4640 C1340 4640 1320 4690 1340 4690" style="fill:transparent;stroke:black" /><rect x="1406" y="4670" width="137" height="40" style="fill:green;stroke:black;stroke-width:1" /><text x="1416" y="4680" font-size="8" style="fill:white">Banda de rock alternativo y funk rock estadounidense</text><rect x="1340" y="4720" width="200" height="40" style="fill:white;stroke:black;stroke-width:1" /><text x="1350" y="4730" font-size="10" style="fill:blue">p</text><path d="M1320 4640 C1340 4640 1320 4740 1340 4740" style="fill:transparent;stroke:black" /><rect x="1406" y="4720" width="137" height="40" style="fill:green;stroke:black;stroke-width:1" /><text x="1416" y="4730" font-size="8" style="fill:white">Géneros: Rock alternativo, funk metal, pop rock, indie rock, heavy metal, college rock, dance rock, rap rock y funk rock</text><rect x="1340" y="4770" width="200" height="40" style="fill:white;stroke:black;stroke-width:1" /><text x="1350" y="4780" font-size="10" style="fill:blue">p</text><path d="M1320 4640 C1340 4640 1320 4790 1340 4790" style="fill:transparent;stroke:black" /><rect x="1406" y="4770" width="137" height="40" style="fill:green;stroke:black;stroke-width:1" /><text x="1416" y="4780" font-size="8" style="fill:white">Escúchalo en:</text><rect x="1340" y="4820" width="200" height="40" style="fill:white;stroke:black;stroke-width:1" /><text x="1350" y="4830" font-size="10" style="fill:blue">ul</text><path d="M1320 4640 C1340 4640 1320 4840 1340 4840" style="fill:transparent;stroke:black" /><rect x="1560" y="4820" width="200" height="40" style="fill:white;stroke:black;stroke-width:1" /><text x="1570" y="4830" font-size="10" style="fill:blue">li</text><path d="M1540 4840 C1560 4840 1540 4840 1560 4840" style="fill:transparent;stroke:black" /><rect x="1780" y="4820" width="200" height="40" style="fill:white;stroke:black;stroke-width:1" /><text x="1790" y="4830" font-size="10" style="fill:blue">a</text><path d="M1760 4840 C1780 4840 1760 4840 1780 4840" style="fill:transparent;stroke:black" /><text x="1790" y="4840" font-size="8" style="fill:black">href: https://open.spotify.com/artist/0L8ExT028jH3ddEcZwqJJ5?autoplay=true</text><rect x="1846" y="4820" width="137" height="40" style="fill:green;stroke:black;stroke-width:1" /><text x="1856" y="4830" font-size="8" style="fill:white">Spotify - Red Hot Chili Peppers</text><rect x="1560" y="4920" width="200" height="40" style="fill:white;stroke:black;stroke-width:1" /><text x="1570" y="4930" font-size="10" style="fill:blue">li</text><path d="M1540 4840 C1560 4840 1540 4940 1560 4940" style="fill:transparent;stroke:black" /><rect x="1780" y="4920" width="200" height="40" style="fill:white;stroke:black;stroke-width:1" /><text x="1790" y="4930" font-size="10" style="fill:blue">a</text><path d="M1760 4940 C1780 4940 1760 4940 1780 4940" style="fill:transparent;stroke:black" /><text x="1790" y="4940" font-size="8" style="fill:black">href: https://www.youtube.com/watch?v=YlUKcNNmywk&amp;list=PLsK0gCOg4x1dqBCUSFXvS14lkHoQQUgEQ</text><rect x="1846" y="4920" width="137" height="40" style="fill:green;stroke:black;stroke-width:1" /><text x="1856" y="4930" font-size="8" style="fill:white">Youtube - Red Hot Chili Peppers</text><rect x="460" y="5270" width="200" height="40" style="fill:white;stroke:black;stroke-width:1" /><text x="470" y="5280" font-size="10" style="fill:blue">footer</text><path d="M440 390 C460 390 440 5290 460 5290" style="fill:transparent;stroke:black" /><rect x="680" y="5270" width="200" height="40" style="fill:white;stroke:black;stroke-width:1" /><text x="690" y="5280" font-size="10" style="fill:blue">a</text><path d="M660 5290 C680 5290 660 5290 680 5290" style="fill:transparent;stroke:black" /><text x="690" y="5290" font-size="8" style="fill:black">href: #arriba</text><rect x="746" y="5270" width="137" height="40" style="fill:green;stroke:black;stroke-width:1" /><text x="756" y="5280" font-size="8" style="fill:white">Volver arriba</text><rect x="680" y="5320" width="200" height="40" style="fill:white;stroke:black;stroke-width:1" /><text x="690" y="5330" font-size="10" style="fill:blue">p</text><path d="M660 5290 C680 5290 660 5340 680 5340" style="fill:transparent;stroke:black" /><rect x="746" y="5320" width="137" height="40" style="fill:green;stroke:black;stroke-width:1" /><text x="756" y="5330" font-size="8" style="fill:white">Copyright © 2017 Carlos Sanabria Miranda</text><rect x="680" y="5370" width="200" height="40" style="fill:white;stroke:black;stroke-width:1" /><text x="690" y="5380" font-size="10" style="fill:blue">p</text><path d="M660 5290 C680 5290 660 5390 680 5390" style="fill:transparent;stroke:black" /><rect x="746" y="5370" width="137" height="40" style="fill:green;stroke:black;stroke-width:1" /><text x="756" y="5380" font-size="8" style="fill:white">Esta página web ha sido validada satisfactoriamente:</text><rect x="680" y="5420" width="200" height="40" style="fill:white;stroke:black;stroke-width:1" /><text x="690" y="5430" font-size="10" style="fill:blue">a</text><path d="M660 5290 C680 5290 660 5440 680 5440" style="fill:transparent;stroke:black" /><text x="690" y="5440" font-size="8" style="fill:black">href: https://validator.w3.org/check?uri=referer</text><rect x="900" y="5420" width="200" height="40" style="fill:white;stroke:black;stroke-width:1" /><text x="910" y="5430" font-size="10" style="fill:blue">img</text><path d="M880 5440 C900 5440 880 5440 900 5440" style="fill:transparent;stroke:black" /><text x="910" y="5440" font-size="8" style="fill:black">src: https://www.w3.org/html/logo/badge/html5-badge-h-solo.png</text><text x="910" y="5450" font-size="8" style="fill:black">alt: HTML5 Válido</text><text x="910" y="5460" font-size="8" style="fill:black">title: HTML5 Válido</text><rect x="680" y="5520" width="200" height="40" style="fill:white;stroke:black;stroke-width:1" /><text x="690" y="5530" font-size="10" style="fill:blue">a</text><path d="M660 5290 C680 5290 660 5540 680 5540" style="fill:transparent;stroke:black" /><text x="690" y="5540" font-size="8" style="fill:black">href:  http://jigsaw.w3.org/css-validator/check/referer </text><rect x="900" y="5520" width="200" height="40" style="fill:white;stroke:black;stroke-width:1" /><text x="910" y="5530" font-size="10" style="fill:blue">img</text><path d="M880 5540 C900 5540 880 5540 900 5540" style="fill:transparent;stroke:black" /><text x="910" y="5540" font-size="8" style="fill:black">src:  http://jigsaw.w3.org/css-validator/images/vcss</text><text x="910" y="5550" font-size="8" style="fill:black">alt: ¡CSS Válido!</text></svg>