<?xml version="1.0" encoding="utf-8"?><svg width="auto" height="5570" style="overflow:visible " version="1.1" xmlns="http://www.w3.org/2000/svg"><rect x="20" y="20" width="200" height="40" style="fill:white;stroke:black;stroke-width:1" /><text x="30" y="30" font-size="10" style="fill:blue">html</text><text x="30" y="40" font-size="8" style="fill:black">lang: es</text><rect x="240" y="20" width="200" height="40" style="fill:white;stroke:black;stroke-width:1" /><text x="250" y="30" font-size="10" style="fill:blue">head</text><path d="M220 40 C240 40 220 40 240 40" style="fill:transparent;stroke:black" /><rect x="460" y="20" width="200" height="40" style="fill:white;stroke:black;stroke-width:1" /><text x="470" y="30" font-size="10" style="fill:blue">meta</text><path d="M440 40 C460 40 440 40 460 40" style="fill:transparent;stroke:black" /><text x="470" y="40" font-size="8" style="fill:black">charset: UTF-8</text><rect x="460" y="70" width="200" height="40" style="fill:white;stroke:black;stroke-width:1" /><text x="470" y="80" font-size="10" style="fill:blue">meta</text><path d="M440 40 C460 40 440 90 460 90" style="fill:transparent;stroke:black" /><text x="470" y="90" font-size="8" style="fill:black">name: author</text><text x="470" y="100" font-size="8" style="fill:black">content: Carlos Sanabria Miranda</text><rect x="460" y="120" width="200" height="40" style="fill:white;stroke:black;stroke-width:1" /><text x="470" y="130" font-size="10" style="fill:blue">meta</text><path d="M440 40 C460 40 440 140 460 140" style="fill:transparent;stroke:black" /><text x="470" y="140" font-size="8" style="fill:black">name: description</text><text x="470" y="150" font-size="8" style="fill:black">content: Página personal para la asignatura de SEW</text><rect x="460" y="170" width="200" height="40" style="fill:white;stroke:black;stroke-width:1" /><text x="470" y="180" font-size="10" style="fill:blue">meta</text><path d="M440 40 C460 40 440 190 460 190" style="fill:transparent;stroke:black" /><text x="470" y="190" font-size="8" style="fill:black">name: keywords</text><text x="470" y="200" font-size="8" style="fill:black">content: personal,SEW,eii,software,estandares,web,uniovi,uo250707</text><rect x="460" y="220" width="200" height="40" style="fill:white;stroke:black;stroke-width:1" /><text x="470" y="230" font-size="10" style="fill:blue">title</text><path d="M440 40 C460 40 440 240 460 240" style="fill:transparent;stroke:black" /><rect x="526" y="220" width="137" height="40" style="fill:green;stroke:black;stroke-width:1" /><text x="536" y="230" font-size="8" style="fill:white">Web Personal</text><rect x="460" y="270" width="200" height="40" style="fill:white;stroke:black;stroke-width:1" /><text x="470" y="280" font-size="10" style="fill:blue">link</text><path d="M440 40 C460 40 440 290 460 290" style="fill:transparent;stroke:black" /><text x="470" y="290" font-size="8" style="fill:black">rel: stylesheet</text><text x="470" y="300" font-size="8" style="fill:black">type: text/css</text><text x="470" y="310" font-size="8" style="fill:black">href: estilo.css</text><rect x="240" y="370" width="200" height="40" style="fill:white;stroke:black;stroke-width:1" /><text x="250" y="380" font-size="10" style="fill:blue">body</text><path d="M220 40 C240 40 220 390 240 390" style="fill:transparent;stroke:black" /><rect x="460" y="370" width="200" height="40" style="fill:white;stroke:black;stroke-width:1" /><text x="470" y="380" font-size="10" style="fill:blue">header</text><path d="M440 390 C460 390 440 390 460 390" style="fill:transparent;stroke:black" /><rect x="680" y="370" width="200" height="40" style="fill:white;stroke:black;stroke-width:1" /><text x="690" y="380" font-size="10" style="fill:blue">h1</text><path d="M660 390 C680 390 660 390 680 390" style="fill:transparent;stroke:black" /><text x="690" y="390" font-size="8" style="fill:black">id: arriba</text><rect x="746" y="370" width="137" height="40" style="fill:green;stroke:black;stroke-width:1" /><text x="756" y="380" font-size="8" style="fill:white">Web Personal</text><rect x="680" y="420" width="200" height="40" style="fill:white;stroke:black;stroke-width:1" /><text x="690" y="430" font-size="10" style="fill:blue">p</text><path d="M660 390 C680 390 660 440 680 440" style="fill:transparent;stroke:black" /><rect x="746" y="420" width="137" height="40" style="fill:green;stroke:black;stroke-width:1" /><text x="756" y="430" font-size="8" style="fill:white">Página personal para la </text><rect x="900" y="420" width="200" height="40" style="fill:white;stroke:black;stroke-width:1" /><text x="910" y="430" font-size="10" style="fill:blue">a</text><path d="M880 440 C900 440 880 440 900 440" style="fill:transparent;stroke:black" /><text x="910" y="440" font-size="8" style="fill:black">href: https://www.campusvirtual.uniovi.es/course/view.php?id=1870</text><rect x="966" y="420" width="137" height="40" style="fill:green;stroke:black;stroke-width:1" /><text x="976" y="430" font-size="8" style="fill:white">asignatura de SEW</text><rect x="680" y="520" width="200" height="40" style="fill:white;stroke:black;stroke-width:1" /><text x="690" y="530" font-size="10" style="fill:blue">nav</text><path d="M660 390 C680 390 660 540 680 540" style="fill:transparent;stroke:black" /><rect x="900" y="520" width="200" height="40" style="fill:white;stroke:black;stroke-width:1" /><text x="910" y="530" font-size="10" style="fill:blue">ul</text><path d="M880 540 C900 540 880 540 900 540" style="fill:transparent;stroke:black" /><rect x="1120" y="520" width="200" height="40" style="fill:white;stroke:black;stroke-width:1" /><text x="1130" y="530" font-size="10" style="fill:blue">li</text><path d="M1100 540 C1120 540 1100 540 1120 540" style="fill:transparent;stroke:black" /><rect x="1340" y="520" width="200" height="40" style="fill:white;stroke:black;stroke-width:1" /><text x="1350" y="530" font-size="10" style="fill:blue">a</text><path d="M1320 540 C1340 540 1320 540 1340 540" style="fill:transparent;stroke:black" /><text x="1350" y="540" font-size="8" style="fill:black">href: index.html</text><text x="1350" y="550" font-size="8" style="fill:black">tabindex: 1</text><text x="1350" y="560" font-size="8" style="fill:black">accesskey: P</text><rect x="1406" y="520" width="137" height="40" style="fill:green;stroke:black;stroke-width:1" /><text x="1416" y="530" font-size="8" style="fill:white">Principal</text><rect x="1120" y="620" width="200" height="40" style="fill:white;stroke:black;stroke-width:1" /><text x="1130" y="630" font-size="10" style="fill:blue">li</text><path d="M1100 540 C1120 540 1100 640 1120 640" style="fill:transparent;stroke:black" /><rect x="1340" y="620" width="200" height="40" style="fill:white;stroke:black;stroke-width:1" /><text x="1350" y="630" font-size="10" style="fill:blue">a</text><path d="M1320 640 C1340 640 1320 640 1340 640" style="fill:transparent;stroke:black" /><text x="1350" y="640" font-size="8" style="fill:black">href: sew.html</text><text x="1350" y="650" font-size="8" style="fill:black">tabindex: 2</text><text x="1350" y="660" font-size="8" style="fill:black">accesskey: W</text><rect x="1406" y="620" width="137" height="40" style="fill:green;stroke:black;stroke-width:1" /><text x="1416" y="630" font-size="8" style="fill:white">SEW</text><rect x="1120" y="720" width="200" height="40" style="fill:white;stroke:black;stroke-width:1" /><text x="1130" y="730" font-size="10" style="fill:blue">li</text><path d="M1100 540 C1120 540 1100 740 1120 740" style="fill:transparent;stroke:black" /><rect x="1340" y="720" width="200" height="40" style="fill:white;stroke:black;stroke-width:1" /><text x="1350" y="730" font-size="10" style="fill:blue">a</text><path d="M1320 740 C1340 740 1320 740 1340 740" style="fill:transparent;stroke:black" /><text x="1350" y="740" font-size="8" style="fill:black">href: musica.html</text><text x="1350" y="750" font-size="8" style="fill:black">tabindex: 3</text><text x="1350" y="760" font-size="8" style="fill:black">accesskey: M</text><rect x="1406" y="720" width="137" height="40" style="fill:green;stroke:black;stroke-width:1" /><text x="1416" y="730" font-size="8" style="fill:white">Música</text><rect x="1120" y="820" width="200" height="40" style="fill:white;stroke:black;stroke-width:1" /><text x="1130" y="830" font-size="10" style="fill:blue">li</text><path d="M1100 540 C1120 540 1100 840 1120 840" style="fill:transparent;stroke:black" /><rect x="1340" y="820" width="200" height="40" style="fill:white;stroke:black;stroke-width:1" /><text x="1350" y="830" font-size="10" style="fill:blue">a</text><path d="M1320 840 C1340 840 1320 840 1340 840" style="fill:transparent;stroke:black" /><text x="1350" y="840" font-size="8" style="fill:black">href: videojuegos.html</text><text x="1350" y="850" font-size="8" style="fill:black">tabindex: 4</text><text x="1350" y="860" font-size="8" style="fill:black">accesskey: V</text><rect x="1406" y="820" width="137" height="40" style="fill:green;stroke:black;stroke-width:1" /><text x="1416" y="830" font-size="8" style="fill:white">Videojuegos</text><rect x="1120" y="920" width="200" height="40" style="fill:white;stroke:black;stroke-width:1" /><text x="1130" y="930" font-size="10" style="fill:blue">li</text><path d="M1100 540 C1120 540 1100 940 1120 940" style="fill:transparent;stroke:black" /><rect x="1340" y="920" width="200" height="40" style="fill:white;stroke:black;stroke-width:1" /><text x="1350" y="930" font-size="10" style="fill:blue">a</text><path d="M1320 940 C1340 940 1320 940 1340 940" style="fill:transparent;stroke:black" /><text x="1350" y="940" font-size="8" style="fill:black">href: series.html</text><text x="1350" y="950" font-size="8" style="fill:black">tabindex: 5</text><text x="1350" y="960" font-size="8" style="fill:black">accesskey: S</text><rect x="1406" y="920" width="137" height="40" style="fill:green;stroke:black;stroke-width:1" /><text x="1416" y="930" font-size="8" style="fill:white">Series</text><rect x="460" y="1170" width="200" height="40" style="fill:white;stroke:black;stroke-width:1" /><text x="470" y="1180" font-size="10" style="fill:blue">main</text><path d="M440 390 C460 390 440 1190 460 1190" style="fill:transparent;stroke:black" /><rect x="680" y="1170" width="200" height="40" style="fill:white;stroke:black;stroke-width:1" /><text x="690" y="1180" font-size="10" style="fill:blue">section</text><path d="M660 1190 C680 1190 660 1190 680 1190" style="fill:transparent;stroke:black" /><rect x="900" y="1170" width="200" height="40" style="fill:white;stroke:black;stroke-width:1" /><text x="910" y="1180" font-size="10" style="fill:blue">h2</text><path d="M880 1190 C900 1190 880 1190 900 1190" style="fill:transparent;stroke:black" /><rect x="966" y="1170" width="137" height="40" style="fill:green;stroke:black;stroke-width:1" /><text x="976" y="1180" font-size="8" style="fill:white">Series</text><rect x="900" y="1220" width="200" height="40" style="fill:white;stroke:black;stroke-width:1" /><text x="910" y="1230" font-size="10" style="fill:blue">p</text><path d="M880 1190 C900 1190 880 1240 900 1240" style="fill:transparent;stroke:black" /><rect x="966" y="1220" width="137" height="40" style="fill:green;stroke:black;stroke-width:1" /><text x="976" y="1230" font-size="8" style="fill:white">La siguiente tabla muestra algunas de mis series favoritas, junto a cierta información sobre las mismas:</text><rect x="900" y="1270" width="200" height="40" style="fill:white;stroke:black;stroke-width:1" /><text x="910" y="1280" font-size="10" style="fill:blue">table</text><path d="M880 1190 C900 1190 880 1290 900 1290" style="fill:transparent;stroke:black" /><rect x="1120" y="1270" width="200" height="40" style="fill:white;stroke:black;stroke-width:1" /><text x="1130" y="1280" font-size="10" style="fill:blue">tr</text><path d="M1100 1290 C1120 1290 1100 1290 1120 1290" style="fill:transparent;stroke:black" /><rect x="1340" y="1270" width="200" height="40" style="fill:white;stroke:black;stroke-width:1" /><text x="1350" y="1280" font-size="10" style="fill:blue">th</text><path d="M1320 1290 C1340 1290 1320 1290 1340 1290" style="fill:transparent;stroke:black" /><rect x="1406" y="1270" width="137" height="40" style="fill:green;stroke:black;stroke-width:1" /><text x="1416" y="1280" font-size="8" style="fill:white">Nombre</text><rect x="1340" y="1320" width="200" height="40" style="fill:white;stroke:black;stroke-width:1" /><text x="1350" y="1330" font-size="10" style="fill:blue">th</text><path d="M1320 1290 C1340 1290 1320 1340 1340 1340" style="fill:transparent;stroke:black" /><rect x="1406" y="1320" width="137" height="40" style="fill:green;stroke:black;stroke-width:1" /><text x="1416" y="1330" font-size="8" style="fill:white">Tipo</text><rect x="1340" y="1370" width="200" height="40" style="fill:white;stroke:black;stroke-width:1" /><text x="1350" y="1380" font-size="10" style="fill:blue">th</text><path d="M1320 1290 C1340 1290 1320 1390 1340 1390" style="fill:transparent;stroke:black" /><rect x="1406" y="1370" width="137" height="40" style="fill:green;stroke:black;stroke-width:1" /><text x="1416" y="1380" font-size="8" style="fill:white">Género</text><rect x="1340" y="1420" width="200" height="40" style="fill:white;stroke:black;stroke-width:1" /><text x="1350" y="1430" font-size="10" style="fill:blue">th</text><path d="M1320 1290 C1340 1290 1320 1440 1340 1440" style="fill:transparent;stroke:black" /><rect x="1406" y="1420" width="137" height="40" style="fill:green;stroke:black;stroke-width:1" /><text x="1416" y="1430" font-size="8" style="fill:white">Año de estreno</text><rect x="1340" y="1470" width="200" height="40" style="fill:white;stroke:black;stroke-width:1" /><text x="1350" y="1480" font-size="10" style="fill:blue">th</text><path d="M1320 1290 C1340 1290 1320 1490 1340 1490" style="fill:transparent;stroke:black" /><rect x="1406" y="1470" width="137" height="40" style="fill:green;stroke:black;stroke-width:1" /><text x="1416" y="1480" font-size="8" style="fill:white">Temporadas</text><rect x="1340" y="1520" width="200" height="40" style="fill:white;stroke:black;stroke-width:1" /><text x="1350" y="1530" font-size="10" style="fill:blue">th</text><path d="M1320 1290 C1340 1290 1320 1540 1340 1540" style="fill:transparent;stroke:black" /><rect x="1406" y="1520" width="137" height="40" style="fill:green;stroke:black;stroke-width:1" /><text x="1416" y="1530" font-size="8" style="fill:white">Capítulos (totales)</text><rect x="1340" y="1570" width="200" height="40" style="fill:white;stroke:black;stroke-width:1" /><text x="1350" y="1580" font-size="10" style="fill:blue">th</text><path d="M1320 1290 C1340 1290 1320 1590 1340 1590" style="fill:transparent;stroke:black" /><rect x="1406" y="1570" width="137" height="40" style="fill:green;stroke:black;stroke-width:1" /><text x="1416" y="1580" font-size="8" style="fill:white">Duración (total)</text><rect x="1340" y="1620" width="200" height="40" style="fill:white;stroke:black;stroke-width:1" /><text x="1350" y="1630" font-size="10" style="fill:blue">th</text><path d="M1320 1290 C1340 1290 1320 1640 1340 1640" style="fill:transparent;stroke:black" /><rect x="1406" y="1620" width="137" height="40" style="fill:green;stroke:black;stroke-width:1" /><text x="1416" y="1630" font-size="8" style="fill:white">¿Está terminada?</text><rect x="1340" y="1670" width="200" height="40" style="fill:white;stroke:black;stroke-width:1" /><text x="1350" y="1680" font-size="10" style="fill:blue">th</text><path d="M1320 1290 C1340 1290 1320 1690 1340 1690" style="fill:transparent;stroke:black" /><rect x="1406" y="1670" width="137" height="40" style="fill:green;stroke:black;stroke-width:1" /><text x="1416" y="1680" font-size="8" style="fill:white">¿He visto todos los capítulos?</text><rect x="1120" y="1770" width="200" height="40" style="fill:white;stroke:black;stroke-width:1" /><text x="1130" y="1780" font-size="10" style="fill:blue">tr</text><path d="M1100 1290 C1120 1290 1100 1790 1120 1790" style="fill:transparent;stroke:black" /><rect x="1340" y="1770" width="200" height="40" style="fill:white;stroke:black;stroke-width:1" /><text x="1350" y="1780" font-size="10" style="fill:blue">td</text><path d="M1320 1790 C1340 1790 1320 1790 1340 1790" style="fill:transparent;stroke:black" /><rect x="1406" y="1770" width="137" height="40" style="fill:green;stroke:black;stroke-width:1" /><text x="1416" y="1780" font-size="8" style="fill:white">Dragon Ball Z</text><rect x="1340" y="1820" width="200" height="40" style="fill:white;stroke:black;stroke-width:1" /><text x="1350" y="1830" font-size="10" style="fill:blue">td</text><path d="M1320 1790 C1340 1790 1320 1840 1340 1840" style="fill:transparent;stroke:black" /><rect x="1406" y="1820" width="137" height="40" style="fill:green;stroke:black;stroke-width:1" /><text x="1416" y="1830" font-size="8" style="fill:white">Dibujos</text><rect x="1340" y="1870" width="200" height="40" style="fill:white;stroke:black;stroke-width:1" /><text x="1350" y="1880" font-size="10" style="fill:blue">td</text><path d="M1320 1790 C1340 1790 1320 1890 1340 1890" style="fill:transparent;stroke:black" /><rect x="1406" y="1870" width="137" height="40" style="fill:green;stroke:black;stroke-width:1" /><text x="1416" y="1880" font-size="8" style="fill:white">Acción, Aventura y Fantasía</text><rect x="1340" y="1920" width="200" height="40" style="fill:white;stroke:black;stroke-width:1" /><text x="1350" y="1930" font-size="10" style="fill:blue">td</text><path d="M1320 1790 C1340 1790 1320 1940 1340 1940" style="fill:transparent;stroke:black" /><rect x="1406" y="1920" width="137" height="40" style="fill:green;stroke:black;stroke-width:1" /><text x="1416" y="1930" font-size="8" style="fill:white">1989</text><rect x="1340" y="1970" width="200" height="40" style="fill:white;stroke:black;stroke-width:1" /><text x="1350" y="1980" font-size="10" style="fill:blue">td</text><path d="M1320 1790 C1340 1790 1320 1990 1340 1990" style="fill:transparent;stroke:black" /><rect x="1406" y="1970" width="137" height="40" style="fill:green;stroke:black;stroke-width:1" /><text x="1416" y="1980" font-size="8" style="fill:white">1</text><rect x="1340" y="2020" width="200" height="40" style="fill:white;stroke:black;stroke-width:1" /><text x="1350" y="2030" font-size="10" style="fill:blue">td</text><path d="M1320 1790 C1340 1790 1320 2040 1340 2040" style="fill:transparent;stroke:black" /><rect x="1406" y="2020" width="137" height="40" style="fill:green;stroke:black;stroke-width:1" /><text x="1416" y="2030" font-size="8" style="fill:white">291</text><rect x="1340" y="2070" width="200" height="40" style="fill:white;stroke:black;stroke-width:1" /><text x="1350" y="2080" font-size="10" style="fill:blue">td</text><path d="M1320 1790 C1340 1790 1320 2090 1340 2090" style="fill:transparent;stroke:black" /><rect x="1406" y="2070" width="137" height="40" style="fill:green;stroke:black;stroke-width:1" /><text x="1416" y="2080" font-size="8" style="fill:white">5d 1h 15min</text><rect x="1340" y="2120" width="200" height="40" style="fill:white;stroke:black;stroke-width:1" /><text x="1350" y="2130" font-size="10" style="fill:blue">td</text><path d="M1320 1790 C1340 1790 1320 2140 1340 2140" style="fill:transparent;stroke:black" /><rect x="1406" y="2120" width="137" height="40" style="fill:green;stroke:black;stroke-width:1" /><text x="1416" y="2130" font-size="8" style="fill:white">Sí</text><rect x="1340" y="2170" width="200" height="40" style="fill:white;stroke:black;stroke-width:1" /><text x="1350" y="2180" font-size="10" style="fill:blue">td</text><path d="M1320 1790 C1340 1790 1320 2190 1340 2190" style="fill:transparent;stroke:black" /><rect x="1406" y="2170" width="137" height="40" style="fill:green;stroke:black;stroke-width:1" /><text x="1416" y="2180" font-size="8" style="fill:white">Sí</text><rect x="1120" y="2270" width="200" height="40" style="fill:white;stroke:black;stroke-width:1" /><text x="1130" y="2280" font-size="10" style="fill:blue">tr</text><path d="M1100 1290 C1120 1290 1100 2290 1120 2290" style="fill:transparent;stroke:black" /><rect x="1340" y="2270" width="200" height="40" style="fill:white;stroke:black;stroke-width:1" /><text x="1350" y="2280" font-size="10" style="fill:blue">td</text><path d="M1320 2290 C1340 2290 1320 2290 1340 2290" style="fill:transparent;stroke:black" /><rect x="1406" y="2270" width="137" height="40" style="fill:green;stroke:black;stroke-width:1" /><text x="1416" y="2280" font-size="8" style="fill:white">Juego de Tronos</text><rect x="1340" y="2320" width="200" height="40" style="fill:white;stroke:black;stroke-width:1" /><text x="1350" y="2330" font-size="10" style="fill:blue">td</text><path d="M1320 2290 C1340 2290 1320 2340 1340 2340" style="fill:transparent;stroke:black" /><rect x="1406" y="2320" width="137" height="40" style="fill:green;stroke:black;stroke-width:1" /><text x="1416" y="2330" font-size="8" style="fill:white">Real</text><rect x="1340" y="2370" width="200" height="40" style="fill:white;stroke:black;stroke-width:1" /><text x="1350" y="2380" font-size="10" style="fill:blue">td</text><path d="M1320 2290 C1340 2290 1320 2390 1340 2390" style="fill:transparent;stroke:black" /><rect x="1406" y="2370" width="137" height="40" style="fill:green;stroke:black;stroke-width:1" /><text x="1416" y="2380" font-size="8" style="fill:white">Fantasía, Aventuras, Drama, Terror y Suspense</text><rect x="1340" y="2420" width="200" height="40" style="fill:white;stroke:black;stroke-width:1" /><text x="1350" y="2430" font-size="10" style="fill:blue">td</text><path d="M1320 2290 C1340 2290 1320 2440 1340 2440" style="fill:transparent;stroke:black" /><rect x="1406" y="2420" width="137" height="40" style="fill:green;stroke:black;stroke-width:1" /><text x="1416" y="2430" font-size="8" style="fill:white">2011</text><rect x="1340" y="2470" width="200" height="40" style="fill:white;stroke:black;stroke-width:1" /><text x="1350" y="2480" font-size="10" style="fill:blue">td</text><path d="M1320 2290 C1340 2290 1320 2490 1340 2490" style="fill:transparent;stroke:black" /><rect x="1406" y="2470" width="137" height="40" style="fill:green;stroke:black;stroke-width:1" /><text x="1416" y="2480" font-size="8" style="fill:white">7</text><rect x="1340" y="2520" width="200" height="40" style="fill:white;stroke:black;stroke-width:1" /><text x="1350" y="2530" font-size="10" style="fill:blue">td</text><path d="M1320 2290 C1340 2290 1320 2540 1340 2540" style="fill:transparent;stroke:black" /><rect x="1406" y="2520" width="137" height="40" style="fill:green;stroke:black;stroke-width:1" /><text x="1416" y="2530" font-size="8" style="fill:white">67</text><rect x="1340" y="2570" width="200" height="40" style="fill:white;stroke:black;stroke-width:1" /><text x="1350" y="2580" font-size="10" style="fill:blue">td</text><path d="M1320 2290 C1340 2290 1320 2590 1340 2590" style="fill:transparent;stroke:black" /><rect x="1406" y="2570" width="137" height="40" style="fill:green;stroke:black;stroke-width:1" /><text x="1416" y="2580" font-size="8" style="fill:white">2d</text><rect x="1340" y="2620" width="200" height="40" style="fill:white;stroke:black;stroke-width:1" /><text x="1350" y="2630" font-size="10" style="fill:blue">td</text><path d="M1320 2290 C1340 2290 1320 2640 1340 2640" style="fill:transparent;stroke:black" /><rect x="1406" y="2620" width="137" height="40" style="fill:green;stroke:black;stroke-width:1" /><text x="1416" y="2630" font-size="8" style="fill:white">No</text><rect x="1340" y="2670" width="200" height="40" style="fill:white;stroke:black;stroke-width:1" /><text x="1350" y="2680" font-size="10" style="fill:blue">td</text><path d="M1320 2290 C1340 2290 1320 2690 1340 2690" style="fill:transparent;stroke:black" /><rect x="1406" y="2670" width="137" height="40" style="fill:green;stroke:black;stroke-width:1" /><text x="1416" y="2680" font-size="8" style="fill:white">Sí</text><rect x="1120" y="2770" width="200" height="40" style="fill:white;stroke:black;stroke-width:1" /><text x="1130" y="2780" font-size="10" style="fill:blue">tr</text><path d="M1100 1290 C1120 1290 1100 2790 1120 2790" style="fill:transparent;stroke:black" /><rect x="1340" y="2770" width="200" height="40" style="fill:white;stroke:black;stroke-width:1" /><text x="1350" y="2780" font-size="10" style="fill:blue">td</text><path d="M1320 2790 C1340 2790 1320 2790 1340 2790" style="fill:transparent;stroke:black" /><rect x="1406" y="2770" width="137" height="40" style="fill:green;stroke:black;stroke-width:1" /><text x="1416" y="2780" font-size="8" style="fill:white">Mr Robot</text><rect x="1340" y="2820" width="200" height="40" style="fill:white;stroke:black;stroke-width:1" /><text x="1350" y="2830" font-size="10" style="fill:blue">td</text><path d="M1320 2790 C1340 2790 1320 2840 1340 2840" style="fill:transparent;stroke:black" /><rect x="1406" y="2820" width="137" height="40" style="fill:green;stroke:black;stroke-width:1" /><text x="1416" y="2830" font-size="8" style="fill:white">Real</text><rect x="1340" y="2870" width="200" height="40" style="fill:white;stroke:black;stroke-width:1" /><text x="1350" y="2880" font-size="10" style="fill:blue">td</text><path d="M1320 2790 C1340 2790 1320 2890 1340 2890" style="fill:transparent;stroke:black" /><rect x="1406" y="2870" width="137" height="40" style="fill:green;stroke:black;stroke-width:1" /><text x="1416" y="2880" font-size="8" style="fill:white">Drama, Thriller psicológico y Ciberpunk</text><rect x="1340" y="2920" width="200" height="40" style="fill:white;stroke:black;stroke-width:1" /><text x="1350" y="2930" font-size="10" style="fill:blue">td</text><path d="M1320 2790 C1340 2790 1320 2940 1340 2940" style="fill:transparent;stroke:black" /><rect x="1406" y="2920" width="137" height="40" style="fill:green;stroke:black;stroke-width:1" /><text x="1416" y="2930" font-size="8" style="fill:white">2015</text><rect x="1340" y="2970" width="200" height="40" style="fill:white;stroke:black;stroke-width:1" /><text x="1350" y="2980" font-size="10" style="fill:blue">td</text><path d="M1320 2790 C1340 2790 1320 2990 1340 2990" style="fill:transparent;stroke:black" /><rect x="1406" y="2970" width="137" height="40" style="fill:green;stroke:black;stroke-width:1" /><text x="1416" y="2980" font-size="8" style="fill:white">2</text><rect x="1340" y="3020" width="200" height="40" style="fill:white;stroke:black;stroke-width:1" /><text x="1350" y="3030" font-size="10" style="fill:blue">td</text><path d="M1320 2790 C1340 2790 1320 3040 1340 3040" style="fill:transparent;stroke:black" /><rect x="1406" y="3020" width="137" height="40" style="fill:green;stroke:black;stroke-width:1" /><text x="1416" y="3030" font-size="8" style="fill:white">22</text><rect x="1340" y="3070" width="200" height="40" style="fill:white;stroke:black;stroke-width:1" /><text x="1350" y="3080" font-size="10" style="fill:blue">td</text><path d="M1320 2790 C1340 2790 1320 3090 1340 3090" style="fill:transparent;stroke:black" /><rect x="1406" y="3070" width="137" height="40" style="fill:green;stroke:black;stroke-width:1" /><text x="1416" y="3080" font-size="8" style="fill:white">16h</text><rect x="1340" y="3120" width="200" height="40" style="fill:white;stroke:black;stroke-width:1" /><text x="1350" y="3130" font-size="10" style="fill:blue">td</text><path d="M1320 2790 C1340 2790 1320 3140 1340 3140" style="fill:transparent;stroke:black" /><rect x="1406" y="3120" width="137" height="40" style="fill:green;stroke:black;stroke-width:1" /><text x="1416" y="3130" font-size="8" style="fill:white">No</text><rect x="1340" y="3170" width="200" height="40" style="fill:white;stroke:black;stroke-width:1" /><text x="1350" y="3180" font-size="10" style="fill:blue">td</text><path d="M1320 2790 C1340 2790 1320 3190 1340 3190" style="fill:transparent;stroke:black" /><rect x="1406" y="3170" width="137" height="40" style="fill:green;stroke:black;stroke-width:1" /><text x="1416" y="3180" font-size="8" style="fill:white">No</text><rect x="1120" y="3270" width="200" height="40" style="fill:white;stroke:black;stroke-width:1" /><text x="1130" y="3280" font-size="10" style="fill:blue">tr</text><path d="M1100 1290 C1120 1290 1100 3290 1120 3290" style="fill:transparent;stroke:black" /><rect x="1340" y="3270" width="200" height="40" style="fill:white;stroke:black;stroke-width:1" /><text x="1350" y="3280" font-size="10" style="fill:blue">td</text><path d="M1320 3290 C1340 3290 1320 3290 1340 3290" style="fill:transparent;stroke:black" /><rect x="1406" y="3270" width="137" height="40" style="fill:green;stroke:black;stroke-width:1" /><text x="1416" y="3280" font-size="8" style="fill:white">Detective Conan</text><rect x="1340" y="3320" width="200" height="40" style="fill:white;stroke:black;stroke-width:1" /><text x="1350" y="3330" font-size="10" style="fill:blue">td</text><path d="M1320 3290 C1340 3290 1320 3340 1340 3340" style="fill:transparent;stroke:black" /><rect x="1406" y="3320" width="137" height="40" style="fill:green;stroke:black;stroke-width:1" /><text x="1416" y="3330" font-size="8" style="fill:white">Dibujos</text><rect x="1340" y="3370" width="200" height="40" style="fill:white;stroke:black;stroke-width:1" /><text x="1350" y="3380" font-size="10" style="fill:blue">td</text><path d="M1320 3290 C1340 3290 1320 3390 1340 3390" style="fill:transparent;stroke:black" /><rect x="1406" y="3370" width="137" height="40" style="fill:green;stroke:black;stroke-width:1" /><text x="1416" y="3380" font-size="8" style="fill:white">Suspense y Misterio</text><rect x="1340" y="3420" width="200" height="40" style="fill:white;stroke:black;stroke-width:1" /><text x="1350" y="3430" font-size="10" style="fill:blue">td</text><path d="M1320 3290 C1340 3290 1320 3440 1340 3440" style="fill:transparent;stroke:black" /><rect x="1406" y="3420" width="137" height="40" style="fill:green;stroke:black;stroke-width:1" /><text x="1416" y="3430" font-size="8" style="fill:white">1996</text><rect x="1340" y="3470" width="200" height="40" style="fill:white;stroke:black;stroke-width:1" /><text x="1350" y="3480" font-size="10" style="fill:blue">td</text><path d="M1320 3290 C1340 3290 1320 3490 1340 3490" style="fill:transparent;stroke:black" /><rect x="1406" y="3470" width="137" height="40" style="fill:green;stroke:black;stroke-width:1" /><text x="1416" y="3480" font-size="8" style="fill:white">22</text><rect x="1340" y="3520" width="200" height="40" style="fill:white;stroke:black;stroke-width:1" /><text x="1350" y="3530" font-size="10" style="fill:blue">td</text><path d="M1320 3290 C1340 3290 1320 3540 1340 3540" style="fill:transparent;stroke:black" /><rect x="1406" y="3520" width="137" height="40" style="fill:green;stroke:black;stroke-width:1" /><text x="1416" y="3530" font-size="8" style="fill:white">486</text><rect x="1340" y="3570" width="200" height="40" style="fill:white;stroke:black;stroke-width:1" /><text x="1350" y="3580" font-size="10" style="fill:blue">td</text><path d="M1320 3290 C1340 3290 1320 3590 1340 3590" style="fill:transparent;stroke:black" /><rect x="1406" y="3570" width="137" height="40" style="fill:green;stroke:black;stroke-width:1" /><text x="1416" y="3580" font-size="8" style="fill:white">7d 10h 12min</text><rect x="1340" y="3620" width="200" height="40" style="fill:white;stroke:black;stroke-width:1" /><text x="1350" y="3630" font-size="10" style="fill:blue">td</text><path d="M1320 3290 C1340 3290 1320 3640 1340 3640" style="fill:transparent;stroke:black" /><rect x="1406" y="3620" width="137" height="40" style="fill:green;stroke:black;stroke-width:1" /><text x="1416" y="3630" font-size="8" style="fill:white">Sí</text><rect x="1340" y="3670" width="200" height="40" style="fill:white;stroke:black;stroke-width:1" /><text x="1350" y="3680" font-size="10" style="fill:blue">td</text><path d="M1320 3290 C1340 3290 1320 3690 1340 3690" style="fill:transparent;stroke:black" /><rect x="1406" y="3670" width="137" height="40" style="fill:green;stroke:black;stroke-width:1" /><text x="1416" y="3680" font-size="8" style="fill:white">No</text><rect x="1120" y="3770" width="200" height="40" style="fill:white;stroke:black;stroke-width:1" /><text x="1130" y="3780" font-size="10" style="fill:blue">tr</text><path d="M1100 1290 C1120 1290 1100 3790 1120 3790" style="fill:transparent;stroke:black" /><rect x="1340" y="3770" width="200" height="40" style="fill:white;stroke:black;stroke-width:1" /><text x="1350" y="3780" font-size="10" style="fill:blue">td</text><path d="M1320 3790 C1340 3790 1320 3790 1340 3790" style="fill:transparent;stroke:black" /><rect x="1406" y="3770" width="137" height="40" style="fill:green;stroke:black;stroke-width:1" /><text x="1416" y="3780" font-size="8" style="fill:white">Narcos</text><rect x="1340" y="3820" width="200" height="40" style="fill:white;stroke:black;stroke-width:1" /><text x="1350" y="3830" font-size="10" style="fill:blue">td</text><path d="M1320 3790 C1340 3790 1320 3840 1340 3840" style="fill:transparent;stroke:black" /><rect x="1406" y="3820" width="137" height="40" style="fill:green;stroke:black;stroke-width:1" /><text x="1416" y="3830" font-size="8" style="fill:white">Real</text><rect x="1340" y="3870" width="200" height="40" style="fill:white;stroke:black;stroke-width:1" /><text x="1350" y="3880" font-size="10" style="fill:blue">td</text><path d="M1320 3790 C1340 3790 1320 3890 1340 3890" style="fill:transparent;stroke:black" /><rect x="1406" y="3870" width="137" height="40" style="fill:green;stroke:black;stroke-width:1" /><text x="1416" y="3880" font-size="8" style="fill:white">Drama</text><rect x="1340" y="3920" width="200" height="40" style="fill:white;stroke:black;stroke-width:1" /><text x="1350" y="3930" font-size="10" style="fill:blue">td</text><path d="M1320 3790 C1340 3790 1320 3940 1340 3940" style="fill:transparent;stroke:black" /><rect x="1406" y="3920" width="137" height="40" style="fill:green;stroke:black;stroke-width:1" /><text x="1416" y="3930" font-size="8" style="fill:white">2015</text><rect x="1340" y="3970" width="200" height="40" style="fill:white;stroke:black;stroke-width:1" /><text x="1350" y="3980" font-size="10" style="fill:blue">td</text><path d="M1320 3790 C1340 3790 1320 3990 1340 3990" style="fill:transparent;stroke:black" /><rect x="1406" y="3970" width="137" height="40" style="fill:green;stroke:black;stroke-width:1" /><text x="1416" y="3980" font-size="8" style="fill:white">30</text><rect x="1340" y="4020" width="200" height="40" style="fill:white;stroke:black;stroke-width:1" /><text x="1350" y="4030" font-size="10" style="fill:blue">td</text><path d="M1320 3790 C1340 3790 1320 4040 1340 4040" style="fill:transparent;stroke:black" /><rect x="1406" y="4020" width="137" height="40" style="fill:green;stroke:black;stroke-width:1" /><text x="1416" y="4030" font-size="8" style="fill:white">3</text><rect x="1340" y="4070" width="200" height="40" style="fill:white;stroke:black;stroke-width:1" /><text x="1350" y="4080" font-size="10" style="fill:blue">td</text><path d="M1320 3790 C1340 3790 1320 4090 1340 4090" style="fill:transparent;stroke:black" /><rect x="1406" y="4070" width="137" height="40" style="fill:green;stroke:black;stroke-width:1" /><text x="1416" y="4080" font-size="8" style="fill:white">1d 2h</text><rect x="1340" y="4120" width="200" height="40" style="fill:white;stroke:black;stroke-width:1" /><text x="1350" y="4130" font-size="10" style="fill:blue">td</text><path d="M1320 3790 C1340 3790 1320 4140 1340 4140" style="fill:transparent;stroke:black" /><rect x="1406" y="4120" width="137" height="40" style="fill:green;stroke:black;stroke-width:1" /><text x="1416" y="4130" font-size="8" style="fill:white">No se</text><rect x="1340" y="4170" width="200" height="40" style="fill:white;stroke:black;stroke-width:1" /><text x="1350" y="4180" font-size="10" style="fill:blue">td</text><path d="M1320 3790 C1340 3790 1320 4190 1340 4190" style="fill:transparent;stroke:black" /><rect x="1406" y="4170" width="137" height="40" style="fill:green;stroke:black;stroke-width:1" /><text x="1416" y="4180" font-size="8" style="fill:white">No</text><rect x="1120" y="4270" width="200" height="40" style="fill:white;stroke:black;stroke-width:1" /><text x="1130" y="4280" font-size="10" style="fill:blue">tr</text><path d="M1100 1290 C1120 1290 1100 4290 1120 4290" style="fill:transparent;stroke:black" /><rect x="1340" y="4270" width="200" height="40" style="fill:white;stroke:black;stroke-width:1" /><text x="1350" y="4280" font-size="10" style="fill:blue">td</text><path d="M1320 4290 C1340 4290 1320 4290 1340 4290" style="fill:transparent;stroke:black" /><rect x="1406" y="4270" width="137" height="40" style="fill:green;stroke:black;stroke-width:1" /><text x="1416" y="4280" font-size="8" style="fill:white">Los Simpson</text><rect x="1340" y="4320" width="200" height="40" style="fill:white;stroke:black;stroke-width:1" /><text x="1350" y="4330" font-size="10" style="fill:blue">td</text><path d="M1320 4290 C1340 4290 1320 4340 1340 4340" style="fill:transparent;stroke:black" /><rect x="1406" y="4320" width="137" height="40" style="fill:green;stroke:black;stroke-width:1" /><text x="1416" y="4330" font-size="8" style="fill:white">Dibujos</text><rect x="1340" y="4370" width="200" height="40" style="fill:white;stroke:black;stroke-width:1" /><text x="1350" y="4380" font-size="10" style="fill:blue">td</text><path d="M1320 4290 C1340 4290 1320 4390 1340 4390" style="fill:transparent;stroke:black" /><rect x="1406" y="4370" width="137" height="40" style="fill:green;stroke:black;stroke-width:1" /><text x="1416" y="4380" font-size="8" style="fill:white">Comedia</text><rect x="1340" y="4420" width="200" height="40" style="fill:white;stroke:black;stroke-width:1" /><text x="1350" y="4430" font-size="10" style="fill:blue">td</text><path d="M1320 4290 C1340 4290 1320 4440 1340 4440" style="fill:transparent;stroke:black" /><rect x="1406" y="4420" width="137" height="40" style="fill:green;stroke:black;stroke-width:1" /><text x="1416" y="4430" font-size="8" style="fill:white">1989</text><rect x="1340" y="4470" width="200" height="40" style="fill:white;stroke:black;stroke-width:1" /><text x="1350" y="4480" font-size="10" style="fill:blue">td</text><path d="M1320 4290 C1340 4290 1320 4490 1340 4490" style="fill:transparent;stroke:black" /><rect x="1406" y="4470" width="137" height="40" style="fill:green;stroke:black;stroke-width:1" /><text x="1416" y="4480" font-size="8" style="fill:white">632</text><rect x="1340" y="4520" width="200" height="40" style="fill:white;stroke:black;stroke-width:1" /><text x="1350" y="4530" font-size="10" style="fill:blue">td</text><path d="M1320 4290 C1340 4290 1320 4540 1340 4540" style="fill:transparent;stroke:black" /><rect x="1406" y="4520" width="137" height="40" style="fill:green;stroke:black;stroke-width:1" /><text x="1416" y="4530" font-size="8" style="fill:white">30</text><rect x="1340" y="4570" width="200" height="40" style="fill:white;stroke:black;stroke-width:1" /><text x="1350" y="4580" font-size="10" style="fill:blue">td</text><path d="M1320 4290 C1340 4290 1320 4590 1340 4590" style="fill:transparent;stroke:black" /><rect x="1406" y="4570" width="137" height="40" style="fill:green;stroke:black;stroke-width:1" /><text x="1416" y="4580" font-size="8" style="fill:white">9d 15h 44min</text><rect x="1340" y="4620" width="200" height="40" style="fill:white;stroke:black;stroke-width:1" /><text x="1350" y="4630" font-size="10" style="fill:blue">td</text><path d="M1320 4290 C1340 4290 1320 4640 1340 4640" style="fill:transparent;stroke:black" /><rect x="1406" y="4620" width="137" height="40" style="fill:green;stroke:black;stroke-width:1" /><text x="1416" y="4630" font-size="8" style="fill:white">No se</text><rect x="1340" y="4670" width="200" height="40" style="fill:white;stroke:black;stroke-width:1" /><text x="1350" y="4680" font-size="10" style="fill:blue">td</text><path d="M1320 4290 C1340 4290 1320 4690 1340 4690" style="fill:transparent;stroke:black" /><rect x="1406" y="4670" width="137" height="40" style="fill:green;stroke:black;stroke-width:1" /><text x="1416" y="4680" font-size="8" style="fill:white">No</text><rect x="900" y="4820" width="200" height="40" style="fill:white;stroke:black;stroke-width:1" /><text x="910" y="4830" font-size="10" style="fill:blue">p</text><path d="M880 1190 C900 1190 880 4840 900 4840" style="fill:transparent;stroke:black" /><rect x="966" y="4820" width="137" height="40" style="fill:green;stroke:black;stroke-width:1" /><text x="976" y="4830" font-size="8" style="fill:white">Intro de Dragon Ball Z:</text><rect x="900" y="4870" width="200" height="40" style="fill:white;stroke:black;stroke-width:1" /><text x="910" y="4880" font-size="10" style="fill:blue">video</text><path d="M880 1190 C900 1190 880 4890 900 4890" style="fill:transparent;stroke:black" /><text x="910" y="4890" font-size="8" style="fill:black">controls: controls</text><text x="910" y="4900" font-size="8" style="fill:black">preload: auto</text><text x="910" y="4910" font-size="8" style="fill:black">muted: muted</text><rect x="1120" y="4870" width="200" height="40" style="fill:white;stroke:black;stroke-width:1" /><text x="1130" y="4880" font-size="10" style="fill:blue">source</text><path d="M1100 4890 C1120 4890 1100 4890 1120 4890" style="fill:transparent;stroke:black" /><text x="1130" y="4890" font-size="8" style="fill:black">src: https://unioviedo-my.sharepoint.com/personal/uo250707_uniovi_es/_layouts/15/guestaccess.aspx?docid=0eb75f910d86f45ea85491d43a7587185&amp;authkey=AZI0nl4nfDMsxExI-bZCBUI&amp;e=fe22a0514a2a47748ddf1c0dba5d27e8</text><text x="1130" y="4900" font-size="8" style="fill:black">type: video/mp4</text><rect x="460" y="5070" width="200" height="40" style="fill:white;stroke:black;stroke-width:1" /><text x="470" y="5080" font-size="10" style="fill:blue">footer</text><path d="M440 390 C460 390 440 5090 460 5090" style="fill:transparent;stroke:black" /><rect x="680" y="5070" width="200" height="40" style="fill:white;stroke:black;stroke-width:1" /><text x="690" y="5080" font-size="10" style="fill:blue">a</text><path d="M660 5090 C680 5090 660 5090 680 5090" style="fill:transparent;stroke:black" /><text x="690" y="5090" font-size="8" style="fill:black">href: #arriba</text><rect x="746" y="5070" width="137" height="40" style="fill:green;stroke:black;stroke-width:1" /><text x="756" y="5080" font-size="8" style="fill:white">Volver arriba</text><rect x="680" y="5120" width="200" height="40" style="fill:white;stroke:black;stroke-width:1" /><text x="690" y="5130" font-size="10" style="fill:blue">p</text><path d="M660 5090 C680 5090 660 5140 680 5140" style="fill:transparent;stroke:black" /><rect x="746" y="5120" width="137" height="40" style="fill:green;stroke:black;stroke-width:1" /><text x="756" y="5130" font-size="8" style="fill:white">Copyright © 2017 Carlos Sanabria Miranda</text><rect x="680" y="5170" width="200" height="40" style="fill:white;stroke:black;stroke-width:1" /><text x="690" y="5180" font-size="10" style="fill:blue">p</text><path d="M660 5090 C680 5090 660 5190 680 5190" style="fill:transparent;stroke:black" /><rect x="746" y="5170" width="137" height="40" style="fill:green;stroke:black;stroke-width:1" /><text x="756" y="5180" font-size="8" style="fill:white">Esta página web ha sido validada satisfactoriamente:</text><rect x="680" y="5220" width="200" height="40" style="fill:white;stroke:black;stroke-width:1" /><text x="690" y="5230" font-size="10" style="fill:blue">a</text><path d="M660 5090 C680 5090 660 5240 680 5240" style="fill:transparent;stroke:black" /><text x="690" y="5240" font-size="8" style="fill:black">href: https://validator.w3.org/check?uri=referer</text><rect x="900" y="5220" width="200" height="40" style="fill:white;stroke:black;stroke-width:1" /><text x="910" y="5230" font-size="10" style="fill:blue">img</text><path d="M880 5240 C900 5240 880 5240 900 5240" style="fill:transparent;stroke:black" /><text x="910" y="5240" font-size="8" style="fill:black">src: https://www.w3.org/html/logo/badge/html5-badge-h-solo.png</text><text x="910" y="5250" font-size="8" style="fill:black">alt: HTML5 Válido</text><text x="910" y="5260" font-size="8" style="fill:black">title: HTML5 Válido</text><rect x="680" y="5320" width="200" height="40" style="fill:white;stroke:black;stroke-width:1" /><text x="690" y="5330" font-size="10" style="fill:blue">a</text><path d="M660 5090 C680 5090 660 5340 680 5340" style="fill:transparent;stroke:black" /><text x="690" y="5340" font-size="8" style="fill:black">href:  http://jigsaw.w3.org/css-validator/check/referer </text><rect x="900" y="5320" width="200" height="40" style="fill:white;stroke:black;stroke-width:1" /><text x="910" y="5330" font-size="10" style="fill:blue">img</text><path d="M880 5340 C900 5340 880 5340 900 5340" style="fill:transparent;stroke:black" /><text x="910" y="5340" font-size="8" style="fill:black">src:  http://jigsaw.w3.org/css-validator/images/vcss</text><text x="910" y="5350" font-size="8" style="fill:black">alt: ¡CSS Válido!</text></svg>