<?xml version="1.0" encoding="utf-8"?><svg width="auto" height="3620" style="overflow:visible " version="1.1" xmlns="http://www.w3.org/2000/svg"><rect x="20" y="20" width="200" height="40" style="fill:white;stroke:black;stroke-width:1" /><text x="30" y="30" font-size="10" style="fill:blue">html</text><text x="30" y="40" font-size="8" style="fill:black">lang: es</text><rect x="240" y="20" width="200" height="40" style="fill:white;stroke:black;stroke-width:1" /><text x="250" y="30" font-size="10" style="fill:blue">head</text><path d="M220 40 C240 40 220 40 240 40" style="fill:transparent;stroke:black" /><rect x="460" y="20" width="200" height="40" style="fill:white;stroke:black;stroke-width:1" /><text x="470" y="30" font-size="10" style="fill:blue">meta</text><path d="M440 40 C460 40 440 40 460 40" style="fill:transparent;stroke:black" /><text x="470" y="40" font-size="8" style="fill:black">charset: UTF-8</text><rect x="460" y="70" width="200" height="40" style="fill:white;stroke:black;stroke-width:1" /><text x="470" y="80" font-size="10" style="fill:blue">meta</text><path d="M440 40 C460 40 440 90 460 90" style="fill:transparent;stroke:black" /><text x="470" y="90" font-size="8" style="fill:black">name: author</text><text x="470" y="100" font-size="8" style="fill:black">content: Carlos Sanabria Miranda</text><rect x="460" y="120" width="200" height="40" style="fill:white;stroke:black;stroke-width:1" /><text x="470" y="130" font-size="10" style="fill:blue">meta</text><path d="M440 40 C460 40 440 140 460 140" style="fill:transparent;stroke:black" /><text x="470" y="140" font-size="8" style="fill:black">name: description</text><text x="470" y="150" font-size="8" style="fill:black">content: Página personal para la asignatura de SEW</text><rect x="460" y="170" width="200" height="40" style="fill:white;stroke:black;stroke-width:1" /><text x="470" y="180" font-size="10" style="fill:blue">meta</text><path d="M440 40 C460 40 440 190 460 190" style="fill:transparent;stroke:black" /><text x="470" y="190" font-size="8" style="fill:black">name: keywords</text><text x="470" y="200" font-size="8" style="fill:black">content: personal,SEW,eii,software,estandares,web,uniovi,uo250707</text><rect x="460" y="220" width="200" height="40" style="fill:white;stroke:black;stroke-width:1" /><text x="470" y="230" font-size="10" style="fill:blue">title</text><path d="M440 40 C460 40 440 240 460 240" style="fill:transparent;stroke:black" /><rect x="526" y="220" width="137" height="40" style="fill:green;stroke:black;stroke-width:1" /><text x="536" y="230" font-size="8" style="fill:white">Web Personal</text><rect x="460" y="270" width="200" height="40" style="fill:white;stroke:black;stroke-width:1" /><text x="470" y="280" font-size="10" style="fill:blue">link</text><path d="M440 40 C460 40 440 290 460 290" style="fill:transparent;stroke:black" /><text x="470" y="290" font-size="8" style="fill:black">rel: stylesheet</text><text x="470" y="300" font-size="8" style="fill:black">type: text/css</text><text x="470" y="310" font-size="8" style="fill:black">href: estilo.css</text><rect x="460" y="320" width="200" height="40" style="fill:white;stroke:black;stroke-width:1" /><text x="470" y="330" font-size="10" style="fill:blue">link</text><path d="M440 40 C460 40 440 340 460 340" style="fill:transparent;stroke:black" /><text x="470" y="340" font-size="8" style="fill:black">rel: stylesheet</text><text x="470" y="350" font-size="8" style="fill:black">type: text/css</text><text x="470" y="360" font-size="8" style="fill:black">href: estilo_sew.css</text><rect x="240" y="420" width="200" height="40" style="fill:white;stroke:black;stroke-width:1" /><text x="250" y="430" font-size="10" style="fill:blue">body</text><path d="M220 40 C240 40 220 440 240 440" style="fill:transparent;stroke:black" /><rect x="460" y="420" width="200" height="40" style="fill:white;stroke:black;stroke-width:1" /><text x="470" y="430" font-size="10" style="fill:blue">header</text><path d="M440 440 C460 440 440 440 460 440" style="fill:transparent;stroke:black" /><rect x="680" y="420" width="200" height="40" style="fill:white;stroke:black;stroke-width:1" /><text x="690" y="430" font-size="10" style="fill:blue">h1</text><path d="M660 440 C680 440 660 440 680 440" style="fill:transparent;stroke:black" /><text x="690" y="440" font-size="8" style="fill:black">id: arriba</text><rect x="746" y="420" width="137" height="40" style="fill:green;stroke:black;stroke-width:1" /><text x="756" y="430" font-size="8" style="fill:white">Web Personal</text><rect x="680" y="470" width="200" height="40" style="fill:white;stroke:black;stroke-width:1" /><text x="690" y="480" font-size="10" style="fill:blue">p</text><path d="M660 440 C680 440 660 490 680 490" style="fill:transparent;stroke:black" /><rect x="746" y="470" width="137" height="40" style="fill:green;stroke:black;stroke-width:1" /><text x="756" y="480" font-size="8" style="fill:white">Página personal para la </text><rect x="900" y="470" width="200" height="40" style="fill:white;stroke:black;stroke-width:1" /><text x="910" y="480" font-size="10" style="fill:blue">a</text><path d="M880 490 C900 490 880 490 900 490" style="fill:transparent;stroke:black" /><text x="910" y="490" font-size="8" style="fill:black">href: https://www.campusvirtual.uniovi.es/course/view.php?id=1870</text><rect x="966" y="470" width="137" height="40" style="fill:green;stroke:black;stroke-width:1" /><text x="976" y="480" font-size="8" style="fill:white">asignatura de SEW</text><rect x="680" y="570" width="200" height="40" style="fill:white;stroke:black;stroke-width:1" /><text x="690" y="580" font-size="10" style="fill:blue">nav</text><path d="M660 440 C680 440 660 590 680 590" style="fill:transparent;stroke:black" /><rect x="900" y="570" width="200" height="40" style="fill:white;stroke:black;stroke-width:1" /><text x="910" y="580" font-size="10" style="fill:blue">ul</text><path d="M880 590 C900 590 880 590 900 590" style="fill:transparent;stroke:black" /><rect x="1120" y="570" width="200" height="40" style="fill:white;stroke:black;stroke-width:1" /><text x="1130" y="580" font-size="10" style="fill:blue">li</text><path d="M1100 590 C1120 590 1100 590 1120 590" style="fill:transparent;stroke:black" /><rect x="1340" y="570" width="200" height="40" style="fill:white;stroke:black;stroke-width:1" /><text x="1350" y="580" font-size="10" style="fill:blue">a</text><path d="M1320 590 C1340 590 1320 590 1340 590" style="fill:transparent;stroke:black" /><text x="1350" y="590" font-size="8" style="fill:black">href: index.html</text><text x="1350" y="600" font-size="8" style="fill:black">tabindex: 1</text><text x="1350" y="610" font-size="8" style="fill:black">accesskey: P</text><rect x="1406" y="570" width="137" height="40" style="fill:green;stroke:black;stroke-width:1" /><text x="1416" y="580" font-size="8" style="fill:white">Principal</text><rect x="1120" y="670" width="200" height="40" style="fill:white;stroke:black;stroke-width:1" /><text x="1130" y="680" font-size="10" style="fill:blue">li</text><path d="M1100 590 C1120 590 1100 690 1120 690" style="fill:transparent;stroke:black" /><rect x="1340" y="670" width="200" height="40" style="fill:white;stroke:black;stroke-width:1" /><text x="1350" y="680" font-size="10" style="fill:blue">a</text><path d="M1320 690 C1340 690 1320 690 1340 690" style="fill:transparent;stroke:black" /><text x="1350" y="690" font-size="8" style="fill:black">href: sew.html</text><text x="1350" y="700" font-size="8" style="fill:black">tabindex: 2</text><text x="1350" y="710" font-size="8" style="fill:black">accesskey: W</text><rect x="1406" y="670" width="137" height="40" style="fill:green;stroke:black;stroke-width:1" /><text x="1416" y="680" font-size="8" style="fill:white">SEW</text><rect x="1120" y="770" width="200" height="40" style="fill:white;stroke:black;stroke-width:1" /><text x="1130" y="780" font-size="10" style="fill:blue">li</text><path d="M1100 590 C1120 590 1100 790 1120 790" style="fill:transparent;stroke:black" /><rect x="1340" y="770" width="200" height="40" style="fill:white;stroke:black;stroke-width:1" /><text x="1350" y="780" font-size="10" style="fill:blue">a</text><path d="M1320 790 C1340 790 1320 790 1340 790" style="fill:transparent;stroke:black" /><text x="1350" y="790" font-size="8" style="fill:black">href: musica.html</text><text x="1350" y="800" font-size="8" style="fill:black">tabindex: 3</text><text x="1350" y="810" font-size="8" style="fill:black">accesskey: M</text><rect x="1406" y="770" width="137" height="40" style="fill:green;stroke:black;stroke-width:1" /><text x="1416" y="780" font-size="8" style="fill:white">Música</text><rect x="1120" y="870" width="200" height="40" style="fill:white;stroke:black;stroke-width:1" /><text x="1130" y="880" font-size="10" style="fill:blue">li</text><path d="M1100 590 C1120 590 1100 890 1120 890" style="fill:transparent;stroke:black" /><rect x="1340" y="870" width="200" height="40" style="fill:white;stroke:black;stroke-width:1" /><text x="1350" y="880" font-size="10" style="fill:blue">a</text><path d="M1320 890 C1340 890 1320 890 1340 890" style="fill:transparent;stroke:black" /><text x="1350" y="890" font-size="8" style="fill:black">href: videojuegos.html</text><text x="1350" y="900" font-size="8" style="fill:black">tabindex: 4</text><text x="1350" y="910" font-size="8" style="fill:black">accesskey: V</text><rect x="1406" y="870" width="137" height="40" style="fill:green;stroke:black;stroke-width:1" /><text x="1416" y="880" font-size="8" style="fill:white">Videojuegos</text><rect x="1120" y="970" width="200" height="40" style="fill:white;stroke:black;stroke-width:1" /><text x="1130" y="980" font-size="10" style="fill:blue">li</text><path d="M1100 590 C1120 590 1100 990 1120 990" style="fill:transparent;stroke:black" /><rect x="1340" y="970" width="200" height="40" style="fill:white;stroke:black;stroke-width:1" /><text x="1350" y="980" font-size="10" style="fill:blue">a</text><path d="M1320 990 C1340 990 1320 990 1340 990" style="fill:transparent;stroke:black" /><text x="1350" y="990" font-size="8" style="fill:black">href: series.html</text><text x="1350" y="1000" font-size="8" style="fill:black">tabindex: 5</text><text x="1350" y="1010" font-size="8" style="fill:black">accesskey: S</text><rect x="1406" y="970" width="137" height="40" style="fill:green;stroke:black;stroke-width:1" /><text x="1416" y="980" font-size="8" style="fill:white">Series</text><rect x="460" y="1220" width="200" height="40" style="fill:white;stroke:black;stroke-width:1" /><text x="470" y="1230" font-size="10" style="fill:blue">main</text><path d="M440 440 C460 440 440 1240 460 1240" style="fill:transparent;stroke:black" /><rect x="680" y="1220" width="200" height="40" style="fill:white;stroke:black;stroke-width:1" /><text x="690" y="1230" font-size="10" style="fill:blue">section</text><path d="M660 1240 C680 1240 660 1240 680 1240" style="fill:transparent;stroke:black" /><rect x="900" y="1220" width="200" height="40" style="fill:white;stroke:black;stroke-width:1" /><text x="910" y="1230" font-size="10" style="fill:blue">h2</text><path d="M880 1240 C900 1240 880 1240 900 1240" style="fill:transparent;stroke:black" /><rect x="966" y="1220" width="137" height="40" style="fill:green;stroke:black;stroke-width:1" /><text x="976" y="1230" font-size="8" style="fill:white">Software y Estándares para la Web - SEW</text><rect x="900" y="1270" width="200" height="40" style="fill:white;stroke:black;stroke-width:1" /><text x="910" y="1280" font-size="10" style="fill:blue">p</text><path d="M880 1240 C900 1240 880 1290 900 1290" style="fill:transparent;stroke:black" /><rect x="966" y="1270" width="137" height="40" style="fill:green;stroke:black;stroke-width:1" /><text x="976" y="1280" font-size="8" style="fill:white">Carpetas:</text><rect x="900" y="1320" width="200" height="40" style="fill:white;stroke:black;stroke-width:1" /><text x="910" y="1330" font-size="10" style="fill:blue">ul</text><path d="M880 1240 C900 1240 880 1340 900 1340" style="fill:transparent;stroke:black" /><rect x="1120" y="1320" width="200" height="40" style="fill:white;stroke:black;stroke-width:1" /><text x="1130" y="1330" font-size="10" style="fill:blue">li</text><path d="M1100 1340 C1120 1340 1100 1340 1120 1340" style="fill:transparent;stroke:black" /><rect x="1340" y="1320" width="200" height="40" style="fill:white;stroke:black;stroke-width:1" /><text x="1350" y="1330" font-size="10" style="fill:blue">a</text><path d="M1320 1340 C1340 1340 1320 1340 1340 1340" style="fill:transparent;stroke:black" /><text x="1350" y="1340" font-size="8" style="fill:black">href: http://156.35.94.1/~UO250707/SEW</text><rect x="1406" y="1320" width="137" height="40" style="fill:green;stroke:black;stroke-width:1" /><text x="1416" y="1330" font-size="8" style="fill:white">SEW/</text><rect x="1340" y="1370" width="200" height="40" style="fill:white;stroke:black;stroke-width:1" /><text x="1350" y="1380" font-size="10" style="fill:blue">ul</text><path d="M1320 1340 C1340 1340 1320 1390 1340 1390" style="fill:transparent;stroke:black" /><rect x="1560" y="1370" width="200" height="40" style="fill:white;stroke:black;stroke-width:1" /><text x="1570" y="1380" font-size="10" style="fill:blue">li</text><path d="M1540 1390 C1560 1390 1540 1390 1560 1390" style="fill:transparent;stroke:black" /><rect x="1780" y="1370" width="200" height="40" style="fill:white;stroke:black;stroke-width:1" /><text x="1790" y="1380" font-size="10" style="fill:blue">a</text><path d="M1760 1390 C1780 1390 1760 1390 1780 1390" style="fill:transparent;stroke:black" /><text x="1790" y="1390" font-size="8" style="fill:black">href: http://156.35.94.1/~UO250707/SEW/p0</text><rect x="1846" y="1370" width="137" height="40" style="fill:green;stroke:black;stroke-width:1" /><text x="1856" y="1380" font-size="8" style="fill:white">Práctica 0</text><rect x="1560" y="1470" width="200" height="40" style="fill:white;stroke:black;stroke-width:1" /><text x="1570" y="1480" font-size="10" style="fill:blue">li</text><path d="M1540 1390 C1560 1390 1540 1490 1560 1490" style="fill:transparent;stroke:black" /><rect x="1780" y="1470" width="200" height="40" style="fill:white;stroke:black;stroke-width:1" /><text x="1790" y="1480" font-size="10" style="fill:blue">a</text><path d="M1760 1490 C1780 1490 1760 1490 1780 1490" style="fill:transparent;stroke:black" /><text x="1790" y="1490" font-size="8" style="fill:black">href: http://156.35.94.1/~UO250707/SEW/p1</text><rect x="1846" y="1470" width="137" height="40" style="fill:green;stroke:black;stroke-width:1" /><text x="1856" y="1480" font-size="8" style="fill:white">Práctica 1</text><rect x="1560" y="1570" width="200" height="40" style="fill:white;stroke:black;stroke-width:1" /><text x="1570" y="1580" font-size="10" style="fill:blue">li</text><path d="M1540 1390 C1560 1390 1540 1590 1560 1590" style="fill:transparent;stroke:black" /><rect x="1780" y="1570" width="200" height="40" style="fill:white;stroke:black;stroke-width:1" /><text x="1790" y="1580" font-size="10" style="fill:blue">a</text><path d="M1760 1590 C1780 1590 1760 1590 1780 1590" style="fill:transparent;stroke:black" /><text x="1790" y="1590" font-size="8" style="fill:black">href: http://156.35.94.1/~UO250707/SEW/p3</text><rect x="1846" y="1570" width="137" height="40" style="fill:green;stroke:black;stroke-width:1" /><text x="1856" y="1580" font-size="8" style="fill:white">Práctica 3</text><rect x="1560" y="1670" width="200" height="40" style="fill:white;stroke:black;stroke-width:1" /><text x="1570" y="1680" font-size="10" style="fill:blue">li</text><path d="M1540 1390 C1560 1390 1540 1690 1560 1690" style="fill:transparent;stroke:black" /><rect x="1626" y="1670" width="137" height="40" style="fill:green;stroke:black;stroke-width:1" /><text x="1636" y="1680" font-size="8" style="fill:white">Práctica 4
                            </text><rect x="1780" y="1670" width="200" height="40" style="fill:white;stroke:black;stroke-width:1" /><text x="1790" y="1680" font-size="10" style="fill:blue">ul</text><path d="M1760 1690 C1780 1690 1760 1690 1780 1690" style="fill:transparent;stroke:black" /><rect x="2000" y="1670" width="200" height="40" style="fill:white;stroke:black;stroke-width:1" /><text x="2010" y="1680" font-size="10" style="fill:blue">li</text><path d="M1980 1690 C2000 1690 1980 1690 2000 1690" style="fill:transparent;stroke:black" /><rect x="2066" y="1670" width="137" height="40" style="fill:green;stroke:black;stroke-width:1" /><text x="2076" y="1680" font-size="8" style="fill:white">Ejercicio 1
                                    </text><rect x="2220" y="1670" width="200" height="40" style="fill:white;stroke:black;stroke-width:1" /><text x="2230" y="1680" font-size="10" style="fill:blue">ul</text><path d="M2200 1690 C2220 1690 2200 1690 2220 1690" style="fill:transparent;stroke:black" /><rect x="2440" y="1670" width="200" height="40" style="fill:white;stroke:black;stroke-width:1" /><text x="2450" y="1680" font-size="10" style="fill:blue">li</text><path d="M2420 1690 C2440 1690 2420 1690 2440 1690" style="fill:transparent;stroke:black" /><rect x="2660" y="1670" width="200" height="40" style="fill:white;stroke:black;stroke-width:1" /><text x="2670" y="1680" font-size="10" style="fill:blue">a</text><path d="M2640 1690 C2660 1690 2640 1690 2660 1690" style="fill:transparent;stroke:black" /><text x="2670" y="1690" font-size="8" style="fill:black">href: http://156.35.94.1/~UO250707/SEW/p4/Ejercicio-1/Tarea-1/articulos.xml</text><rect x="2726" y="1670" width="137" height="40" style="fill:green;stroke:black;stroke-width:1" /><text x="2736" y="1680" font-size="8" style="fill:white">Tarea 1</text><rect x="2440" y="1770" width="200" height="40" style="fill:white;stroke:black;stroke-width:1" /><text x="2450" y="1780" font-size="10" style="fill:blue">li</text><path d="M2420 1690 C2440 1690 2420 1790 2440 1790" style="fill:transparent;stroke:black" /><rect x="2660" y="1770" width="200" height="40" style="fill:white;stroke:black;stroke-width:1" /><text x="2670" y="1780" font-size="10" style="fill:blue">a</text><path d="M2640 1790 C2660 1790 2640 1790 2660 1790" style="fill:transparent;stroke:black" /><text x="2670" y="1790" font-size="8" style="fill:black">href: http://156.35.94.1/~UO250707/SEW/p4/Ejercicio-1/Tarea-3/articulos.xml</text><rect x="2726" y="1770" width="137" height="40" style="fill:green;stroke:black;stroke-width:1" /><text x="2736" y="1780" font-size="8" style="fill:white">Tarea 3</text><rect x="2440" y="1870" width="200" height="40" style="fill:white;stroke:black;stroke-width:1" /><text x="2450" y="1880" font-size="10" style="fill:blue">li</text><path d="M2420 1690 C2440 1690 2420 1890 2440 1890" style="fill:transparent;stroke:black" /><rect x="2660" y="1870" width="200" height="40" style="fill:white;stroke:black;stroke-width:1" /><text x="2670" y="1880" font-size="10" style="fill:blue">a</text><path d="M2640 1890 C2660 1890 2640 1890 2660 1890" style="fill:transparent;stroke:black" /><text x="2670" y="1890" font-size="8" style="fill:black">href: http://156.35.94.1/~UO250707/SEW/p4/Ejercicio-1/Tarea-4/articulos.xml</text><rect x="2726" y="1870" width="137" height="40" style="fill:green;stroke:black;stroke-width:1" /><text x="2736" y="1880" font-size="8" style="fill:white">Tarea 4</text><rect x="2440" y="1970" width="200" height="40" style="fill:white;stroke:black;stroke-width:1" /><text x="2450" y="1980" font-size="10" style="fill:blue">li</text><path d="M2420 1690 C2440 1690 2420 1990 2440 1990" style="fill:transparent;stroke:black" /><rect x="2660" y="1970" width="200" height="40" style="fill:white;stroke:black;stroke-width:1" /><text x="2670" y="1980" font-size="10" style="fill:blue">a</text><path d="M2640 1990 C2660 1990 2640 1990 2660 1990" style="fill:transparent;stroke:black" /><text x="2670" y="1990" font-size="8" style="fill:black">href: http://156.35.94.1/~UO250707/SEW/p4/Ejercicio-1/Tarea-5/articulos.xml</text><rect x="2726" y="1970" width="137" height="40" style="fill:green;stroke:black;stroke-width:1" /><text x="2736" y="1980" font-size="8" style="fill:white">Tarea 5</text><rect x="2000" y="2170" width="200" height="40" style="fill:white;stroke:black;stroke-width:1" /><text x="2010" y="2180" font-size="10" style="fill:blue">li</text><path d="M1980 1690 C2000 1690 1980 2190 2000 2190" style="fill:transparent;stroke:black" /><rect x="2066" y="2170" width="137" height="40" style="fill:green;stroke:black;stroke-width:1" /><text x="2076" y="2180" font-size="8" style="fill:white">Ejercicio 2
                                    </text><rect x="2220" y="2170" width="200" height="40" style="fill:white;stroke:black;stroke-width:1" /><text x="2230" y="2180" font-size="10" style="fill:blue">ul</text><path d="M2200 2190 C2220 2190 2200 2190 2220 2190" style="fill:transparent;stroke:black" /><rect x="2440" y="2170" width="200" height="40" style="fill:white;stroke:black;stroke-width:1" /><text x="2450" y="2180" font-size="10" style="fill:blue">li</text><path d="M2420 2190 C2440 2190 2420 2190 2440 2190" style="fill:transparent;stroke:black" /><rect x="2660" y="2170" width="200" height="40" style="fill:white;stroke:black;stroke-width:1" /><text x="2670" y="2180" font-size="10" style="fill:blue">a</text><path d="M2640 2190 C2660 2190 2640 2190 2660 2190" style="fill:transparent;stroke:black" /><text x="2670" y="2190" font-size="8" style="fill:black">href: http://156.35.94.1/~UO250707/SEW/p4/Ejercicio-2/Tarea-1/recetas.xml</text><rect x="2726" y="2170" width="137" height="40" style="fill:green;stroke:black;stroke-width:1" /><text x="2736" y="2180" font-size="8" style="fill:white">Tarea 1</text><rect x="2440" y="2270" width="200" height="40" style="fill:white;stroke:black;stroke-width:1" /><text x="2450" y="2280" font-size="10" style="fill:blue">li</text><path d="M2420 2190 C2440 2190 2420 2290 2440 2290" style="fill:transparent;stroke:black" /><rect x="2660" y="2270" width="200" height="40" style="fill:white;stroke:black;stroke-width:1" /><text x="2670" y="2280" font-size="10" style="fill:blue">a</text><path d="M2640 2290 C2660 2290 2640 2290 2660 2290" style="fill:transparent;stroke:black" /><text x="2670" y="2290" font-size="8" style="fill:black">href: http://156.35.94.1/~UO250707/SEW/p4/Ejercicio-2/Tarea-3/recetas.xml</text><rect x="2726" y="2270" width="137" height="40" style="fill:green;stroke:black;stroke-width:1" /><text x="2736" y="2280" font-size="8" style="fill:white">Tarea 3</text><rect x="2440" y="2370" width="200" height="40" style="fill:white;stroke:black;stroke-width:1" /><text x="2450" y="2380" font-size="10" style="fill:blue">li</text><path d="M2420 2190 C2440 2190 2420 2390 2440 2390" style="fill:transparent;stroke:black" /><rect x="2660" y="2370" width="200" height="40" style="fill:white;stroke:black;stroke-width:1" /><text x="2670" y="2380" font-size="10" style="fill:blue">a</text><path d="M2640 2390 C2660 2390 2640 2390 2660 2390" style="fill:transparent;stroke:black" /><text x="2670" y="2390" font-size="8" style="fill:black">href: http://156.35.94.1/~UO250707/SEW/p4/Ejercicio-2/Tarea-4/recetas.xml</text><rect x="2726" y="2370" width="137" height="40" style="fill:green;stroke:black;stroke-width:1" /><text x="2736" y="2380" font-size="8" style="fill:white">Tarea 4</text><rect x="2440" y="2470" width="200" height="40" style="fill:white;stroke:black;stroke-width:1" /><text x="2450" y="2480" font-size="10" style="fill:blue">li</text><path d="M2420 2190 C2440 2190 2420 2490 2440 2490" style="fill:transparent;stroke:black" /><rect x="2660" y="2470" width="200" height="40" style="fill:white;stroke:black;stroke-width:1" /><text x="2670" y="2480" font-size="10" style="fill:blue">a</text><path d="M2640 2490 C2660 2490 2640 2490 2660 2490" style="fill:transparent;stroke:black" /><text x="2670" y="2490" font-size="8" style="fill:black">href: http://156.35.94.1/~UO250707/SEW/p4/Ejercicio-2/Tarea-5/recetas.xml</text><rect x="2726" y="2470" width="137" height="40" style="fill:green;stroke:black;stroke-width:1" /><text x="2736" y="2480" font-size="8" style="fill:white">Tarea 5</text><rect x="1560" y="2770" width="200" height="40" style="fill:white;stroke:black;stroke-width:1" /><text x="1570" y="2780" font-size="10" style="fill:blue">li</text><path d="M1540 1390 C1560 1390 1540 2790 1560 2790" style="fill:transparent;stroke:black" /><rect x="1780" y="2770" width="200" height="40" style="fill:white;stroke:black;stroke-width:1" /><text x="1790" y="2780" font-size="10" style="fill:blue">a</text><path d="M1760 2790 C1780 2790 1760 2790 1780 2790" style="fill:transparent;stroke:black" /><text x="1790" y="2790" font-size="8" style="fill:black">href: http://156.35.94.1/~UO250707/SEW/p5</text><rect x="1846" y="2770" width="137" height="40" style="fill:green;stroke:black;stroke-width:1" /><text x="1856" y="2780" font-size="8" style="fill:white">Práctica 5</text><rect x="460" y="3120" width="200" height="40" style="fill:white;stroke:black;stroke-width:1" /><text x="470" y="3130" font-size="10" style="fill:blue">footer</text><path d="M440 440 C460 440 440 3140 460 3140" style="fill:transparent;stroke:black" /><rect x="680" y="3120" width="200" height="40" style="fill:white;stroke:black;stroke-width:1" /><text x="690" y="3130" font-size="10" style="fill:blue">a</text><path d="M660 3140 C680 3140 660 3140 680 3140" style="fill:transparent;stroke:black" /><text x="690" y="3140" font-size="8" style="fill:black">href: #arriba</text><rect x="746" y="3120" width="137" height="40" style="fill:green;stroke:black;stroke-width:1" /><text x="756" y="3130" font-size="8" style="fill:white">Volver arriba</text><rect x="680" y="3170" width="200" height="40" style="fill:white;stroke:black;stroke-width:1" /><text x="690" y="3180" font-size="10" style="fill:blue">p</text><path d="M660 3140 C680 3140 660 3190 680 3190" style="fill:transparent;stroke:black" /><rect x="746" y="3170" width="137" height="40" style="fill:green;stroke:black;stroke-width:1" /><text x="756" y="3180" font-size="8" style="fill:white">Copyright © 2017 Carlos Sanabria Miranda</text><rect x="680" y="3220" width="200" height="40" style="fill:white;stroke:black;stroke-width:1" /><text x="690" y="3230" font-size="10" style="fill:blue">p</text><path d="M660 3140 C680 3140 660 3240 680 3240" style="fill:transparent;stroke:black" /><rect x="746" y="3220" width="137" height="40" style="fill:green;stroke:black;stroke-width:1" /><text x="756" y="3230" font-size="8" style="fill:white">Esta página web ha sido validada satisfactoriamente:</text><rect x="680" y="3270" width="200" height="40" style="fill:white;stroke:black;stroke-width:1" /><text x="690" y="3280" font-size="10" style="fill:blue">a</text><path d="M660 3140 C680 3140 660 3290 680 3290" style="fill:transparent;stroke:black" /><text x="690" y="3290" font-size="8" style="fill:black">href: https://validator.w3.org/check?uri=referer</text><rect x="900" y="3270" width="200" height="40" style="fill:white;stroke:black;stroke-width:1" /><text x="910" y="3280" font-size="10" style="fill:blue">img</text><path d="M880 3290 C900 3290 880 3290 900 3290" style="fill:transparent;stroke:black" /><text x="910" y="3290" font-size="8" style="fill:black">src: https://www.w3.org/html/logo/badge/html5-badge-h-solo.png</text><text x="910" y="3300" font-size="8" style="fill:black">alt: HTML5 Válido</text><text x="910" y="3310" font-size="8" style="fill:black">title: HTML5 Válido</text><rect x="680" y="3370" width="200" height="40" style="fill:white;stroke:black;stroke-width:1" /><text x="690" y="3380" font-size="10" style="fill:blue">a</text><path d="M660 3140 C680 3140 660 3390 680 3390" style="fill:transparent;stroke:black" /><text x="690" y="3390" font-size="8" style="fill:black">href:  http://jigsaw.w3.org/css-validator/check/referer </text><rect x="900" y="3370" width="200" height="40" style="fill:white;stroke:black;stroke-width:1" /><text x="910" y="3380" font-size="10" style="fill:blue">img</text><path d="M880 3390 C900 3390 880 3390 900 3390" style="fill:transparent;stroke:black" /><text x="910" y="3390" font-size="8" style="fill:black">src:  http://jigsaw.w3.org/css-validator/images/vcss</text><text x="910" y="3400" font-size="8" style="fill:black">alt: ¡CSS Válido!</text></svg>