<?xml version="1.0" encoding="utf-8"?><svg width="auto" height="2570" style="overflow:visible " version="1.1" xmlns="http://www.w3.org/2000/svg"><rect x="20" y="20" width="200" height="40" style="fill:white;stroke:black;stroke-width:1" /><text x="30" y="30" font-size="10" style="fill:blue">html</text><text x="30" y="40" font-size="8" style="fill:black">lang: es</text><rect x="240" y="20" width="200" height="40" style="fill:white;stroke:black;stroke-width:1" /><text x="250" y="30" font-size="10" style="fill:blue">head</text><path d="M220 40 C240 40 220 40 240 40" style="fill:transparent;stroke:black" /><rect x="460" y="20" width="200" height="40" style="fill:white;stroke:black;stroke-width:1" /><text x="470" y="30" font-size="10" style="fill:blue">meta</text><path d="M440 40 C460 40 440 40 460 40" style="fill:transparent;stroke:black" /><text x="470" y="40" font-size="8" style="fill:black">charset: UTF-8</text><rect x="460" y="70" width="200" height="40" style="fill:white;stroke:black;stroke-width:1" /><text x="470" y="80" font-size="10" style="fill:blue">meta</text><path d="M440 40 C460 40 440 90 460 90" style="fill:transparent;stroke:black" /><text x="470" y="90" font-size="8" style="fill:black">name: author</text><text x="470" y="100" font-size="8" style="fill:black">content: Carlos Sanabria Miranda</text><rect x="460" y="120" width="200" height="40" style="fill:white;stroke:black;stroke-width:1" /><text x="470" y="130" font-size="10" style="fill:blue">meta</text><path d="M440 40 C460 40 440 140 460 140" style="fill:transparent;stroke:black" /><text x="470" y="140" font-size="8" style="fill:black">name: description</text><text x="470" y="150" font-size="8" style="fill:black">content: Página personal para la asignatura de SEW</text><rect x="460" y="170" width="200" height="40" style="fill:white;stroke:black;stroke-width:1" /><text x="470" y="180" font-size="10" style="fill:blue">meta</text><path d="M440 40 C460 40 440 190 460 190" style="fill:transparent;stroke:black" /><text x="470" y="190" font-size="8" style="fill:black">name: keywords</text><text x="470" y="200" font-size="8" style="fill:black">content: personal,SEW,eii,software,estandares,web,uniovi,uo250707</text><rect x="460" y="220" width="200" height="40" style="fill:white;stroke:black;stroke-width:1" /><text x="470" y="230" font-size="10" style="fill:blue">title</text><path d="M440 40 C460 40 440 240 460 240" style="fill:transparent;stroke:black" /><rect x="526" y="220" width="137" height="40" style="fill:green;stroke:black;stroke-width:1" /><text x="536" y="230" font-size="8" style="fill:white">Web Personal</text><rect x="460" y="270" width="200" height="40" style="fill:white;stroke:black;stroke-width:1" /><text x="470" y="280" font-size="10" style="fill:blue">link</text><path d="M440 40 C460 40 440 290 460 290" style="fill:transparent;stroke:black" /><text x="470" y="290" font-size="8" style="fill:black">rel: stylesheet</text><text x="470" y="300" font-size="8" style="fill:black">type: text/css</text><text x="470" y="310" font-size="8" style="fill:black">href: estilo.css</text><rect x="240" y="370" width="200" height="40" style="fill:white;stroke:black;stroke-width:1" /><text x="250" y="380" font-size="10" style="fill:blue">body</text><path d="M220 40 C240 40 220 390 240 390" style="fill:transparent;stroke:black" /><rect x="460" y="370" width="200" height="40" style="fill:white;stroke:black;stroke-width:1" /><text x="470" y="380" font-size="10" style="fill:blue">header</text><path d="M440 390 C460 390 440 390 460 390" style="fill:transparent;stroke:black" /><rect x="680" y="370" width="200" height="40" style="fill:white;stroke:black;stroke-width:1" /><text x="690" y="380" font-size="10" style="fill:blue">h1</text><path d="M660 390 C680 390 660 390 680 390" style="fill:transparent;stroke:black" /><text x="690" y="390" font-size="8" style="fill:black">id: arriba</text><rect x="746" y="370" width="137" height="40" style="fill:green;stroke:black;stroke-width:1" /><text x="756" y="380" font-size="8" style="fill:white">Web Personal</text><rect x="680" y="420" width="200" height="40" style="fill:white;stroke:black;stroke-width:1" /><text x="690" y="430" font-size="10" style="fill:blue">p</text><path d="M660 390 C680 390 660 440 680 440" style="fill:transparent;stroke:black" /><rect x="746" y="420" width="137" height="40" style="fill:green;stroke:black;stroke-width:1" /><text x="756" y="430" font-size="8" style="fill:white">Página personal para la </text><rect x="900" y="420" width="200" height="40" style="fill:white;stroke:black;stroke-width:1" /><text x="910" y="430" font-size="10" style="fill:blue">a</text><path d="M880 440 C900 440 880 440 900 440" style="fill:transparent;stroke:black" /><text x="910" y="440" font-size="8" style="fill:black">href: https://www.campusvirtual.uniovi.es/course/view.php?id=1870</text><rect x="966" y="420" width="137" height="40" style="fill:green;stroke:black;stroke-width:1" /><text x="976" y="430" font-size="8" style="fill:white">asignatura de SEW</text><rect x="680" y="520" width="200" height="40" style="fill:white;stroke:black;stroke-width:1" /><text x="690" y="530" font-size="10" style="fill:blue">nav</text><path d="M660 390 C680 390 660 540 680 540" style="fill:transparent;stroke:black" /><rect x="900" y="520" width="200" height="40" style="fill:white;stroke:black;stroke-width:1" /><text x="910" y="530" font-size="10" style="fill:blue">ul</text><path d="M880 540 C900 540 880 540 900 540" style="fill:transparent;stroke:black" /><rect x="1120" y="520" width="200" height="40" style="fill:white;stroke:black;stroke-width:1" /><text x="1130" y="530" font-size="10" style="fill:blue">li</text><path d="M1100 540 C1120 540 1100 540 1120 540" style="fill:transparent;stroke:black" /><rect x="1340" y="520" width="200" height="40" style="fill:white;stroke:black;stroke-width:1" /><text x="1350" y="530" font-size="10" style="fill:blue">a</text><path d="M1320 540 C1340 540 1320 540 1340 540" style="fill:transparent;stroke:black" /><text x="1350" y="540" font-size="8" style="fill:black">href: index.html</text><text x="1350" y="550" font-size="8" style="fill:black">tabindex: 1</text><text x="1350" y="560" font-size="8" style="fill:black">accesskey: P</text><rect x="1406" y="520" width="137" height="40" style="fill:green;stroke:black;stroke-width:1" /><text x="1416" y="530" font-size="8" style="fill:white">Principal</text><rect x="1120" y="620" width="200" height="40" style="fill:white;stroke:black;stroke-width:1" /><text x="1130" y="630" font-size="10" style="fill:blue">li</text><path d="M1100 540 C1120 540 1100 640 1120 640" style="fill:transparent;stroke:black" /><rect x="1340" y="620" width="200" height="40" style="fill:white;stroke:black;stroke-width:1" /><text x="1350" y="630" font-size="10" style="fill:blue">a</text><path d="M1320 640 C1340 640 1320 640 1340 640" style="fill:transparent;stroke:black" /><text x="1350" y="640" font-size="8" style="fill:black">href: sew.html</text><text x="1350" y="650" font-size="8" style="fill:black">tabindex: 2</text><text x="1350" y="660" font-size="8" style="fill:black">accesskey: W</text><rect x="1406" y="620" width="137" height="40" style="fill:green;stroke:black;stroke-width:1" /><text x="1416" y="630" font-size="8" style="fill:white">SEW</text><rect x="1120" y="720" width="200" height="40" style="fill:white;stroke:black;stroke-width:1" /><text x="1130" y="730" font-size="10" style="fill:blue">li</text><path d="M1100 540 C1120 540 1100 740 1120 740" style="fill:transparent;stroke:black" /><rect x="1340" y="720" width="200" height="40" style="fill:white;stroke:black;stroke-width:1" /><text x="1350" y="730" font-size="10" style="fill:blue">a</text><path d="M1320 740 C1340 740 1320 740 1340 740" style="fill:transparent;stroke:black" /><text x="1350" y="740" font-size="8" style="fill:black">href: musica.html</text><text x="1350" y="750" font-size="8" style="fill:black">tabindex: 3</text><text x="1350" y="760" font-size="8" style="fill:black">accesskey: M</text><rect x="1406" y="720" width="137" height="40" style="fill:green;stroke:black;stroke-width:1" /><text x="1416" y="730" font-size="8" style="fill:white">Música</text><rect x="1120" y="820" width="200" height="40" style="fill:white;stroke:black;stroke-width:1" /><text x="1130" y="830" font-size="10" style="fill:blue">li</text><path d="M1100 540 C1120 540 1100 840 1120 840" style="fill:transparent;stroke:black" /><rect x="1340" y="820" width="200" height="40" style="fill:white;stroke:black;stroke-width:1" /><text x="1350" y="830" font-size="10" style="fill:blue">a</text><path d="M1320 840 C1340 840 1320 840 1340 840" style="fill:transparent;stroke:black" /><text x="1350" y="840" font-size="8" style="fill:black">href: videojuegos.html</text><text x="1350" y="850" font-size="8" style="fill:black">tabindex: 4</text><text x="1350" y="860" font-size="8" style="fill:black">accesskey: V</text><rect x="1406" y="820" width="137" height="40" style="fill:green;stroke:black;stroke-width:1" /><text x="1416" y="830" font-size="8" style="fill:white">Videojuegos</text><rect x="1120" y="920" width="200" height="40" style="fill:white;stroke:black;stroke-width:1" /><text x="1130" y="930" font-size="10" style="fill:blue">li</text><path d="M1100 540 C1120 540 1100 940 1120 940" style="fill:transparent;stroke:black" /><rect x="1340" y="920" width="200" height="40" style="fill:white;stroke:black;stroke-width:1" /><text x="1350" y="930" font-size="10" style="fill:blue">a</text><path d="M1320 940 C1340 940 1320 940 1340 940" style="fill:transparent;stroke:black" /><text x="1350" y="940" font-size="8" style="fill:black">href: series.html</text><text x="1350" y="950" font-size="8" style="fill:black">tabindex: 5</text><text x="1350" y="960" font-size="8" style="fill:black">accesskey: S</text><rect x="1406" y="920" width="137" height="40" style="fill:green;stroke:black;stroke-width:1" /><text x="1416" y="930" font-size="8" style="fill:white">Series</text><rect x="460" y="1170" width="200" height="40" style="fill:white;stroke:black;stroke-width:1" /><text x="470" y="1180" font-size="10" style="fill:blue">main</text><path d="M440 390 C460 390 440 1190 460 1190" style="fill:transparent;stroke:black" /><rect x="680" y="1170" width="200" height="40" style="fill:white;stroke:black;stroke-width:1" /><text x="690" y="1180" font-size="10" style="fill:blue">section</text><path d="M660 1190 C680 1190 660 1190 680 1190" style="fill:transparent;stroke:black" /><rect x="900" y="1170" width="200" height="40" style="fill:white;stroke:black;stroke-width:1" /><text x="910" y="1180" font-size="10" style="fill:blue">h2</text><path d="M880 1190 C900 1190 880 1190 900 1190" style="fill:transparent;stroke:black" /><rect x="966" y="1170" width="137" height="40" style="fill:green;stroke:black;stroke-width:1" /><text x="976" y="1180" font-size="8" style="fill:white">Videojuegos</text><rect x="900" y="1220" width="200" height="40" style="fill:white;stroke:black;stroke-width:1" /><text x="910" y="1230" font-size="10" style="fill:blue">p</text><path d="M880 1190 C900 1190 880 1240 900 1240" style="fill:transparent;stroke:black" /><rect x="966" y="1220" width="137" height="40" style="fill:green;stroke:black;stroke-width:1" /><text x="976" y="1230" font-size="8" style="fill:white">Mis videojuegos favortitos son:</text><rect x="900" y="1270" width="200" height="40" style="fill:white;stroke:black;stroke-width:1" /><text x="910" y="1280" font-size="10" style="fill:blue">ol</text><path d="M880 1190 C900 1190 880 1290 900 1290" style="fill:transparent;stroke:black" /><rect x="1120" y="1270" width="200" height="40" style="fill:white;stroke:black;stroke-width:1" /><text x="1130" y="1280" font-size="10" style="fill:blue">li</text><path d="M1100 1290 C1120 1290 1100 1290 1120 1290" style="fill:transparent;stroke:black" /><rect x="1186" y="1270" width="137" height="40" style="fill:green;stroke:black;stroke-width:1" /><text x="1196" y="1280" font-size="8" style="fill:white">Pokémon Esmeralda</text><rect x="1120" y="1320" width="200" height="40" style="fill:white;stroke:black;stroke-width:1" /><text x="1130" y="1330" font-size="10" style="fill:blue">li</text><path d="M1100 1290 C1120 1290 1100 1340 1120 1340" style="fill:transparent;stroke:black" /><text x="1130" y="1340" font-size="8" style="fill:black">lang: en</text><rect x="1186" y="1320" width="137" height="40" style="fill:green;stroke:black;stroke-width:1" /><text x="1196" y="1330" font-size="8" style="fill:white">Kingdom Hearts</text><rect x="1120" y="1370" width="200" height="40" style="fill:white;stroke:black;stroke-width:1" /><text x="1130" y="1380" font-size="10" style="fill:blue">li</text><path d="M1100 1290 C1120 1290 1100 1390 1120 1390" style="fill:transparent;stroke:black" /><text x="1130" y="1390" font-size="8" style="fill:black">lang: en</text><rect x="1186" y="1370" width="137" height="40" style="fill:green;stroke:black;stroke-width:1" /><text x="1196" y="1380" font-size="8" style="fill:white">Ratchet &amp; Clank 3</text><rect x="1120" y="1420" width="200" height="40" style="fill:white;stroke:black;stroke-width:1" /><text x="1130" y="1430" font-size="10" style="fill:blue">li</text><path d="M1100 1290 C1120 1290 1100 1440 1120 1440" style="fill:transparent;stroke:black" /><text x="1130" y="1440" font-size="8" style="fill:black">lang: en</text><rect x="1186" y="1420" width="137" height="40" style="fill:green;stroke:black;stroke-width:1" /><text x="1196" y="1430" font-size="8" style="fill:white">Super Smash Bros Brawl</text><rect x="1120" y="1470" width="200" height="40" style="fill:white;stroke:black;stroke-width:1" /><text x="1130" y="1480" font-size="10" style="fill:blue">li</text><path d="M1100 1290 C1120 1290 1100 1490 1120 1490" style="fill:transparent;stroke:black" /><text x="1130" y="1490" font-size="8" style="fill:black">lang: en</text><rect x="1186" y="1470" width="137" height="40" style="fill:green;stroke:black;stroke-width:1" /><text x="1196" y="1480" font-size="8" style="fill:white">The Legend of Zelda: Skyward Sword</text><rect x="1120" y="1520" width="200" height="40" style="fill:white;stroke:black;stroke-width:1" /><text x="1130" y="1530" font-size="10" style="fill:blue">li</text><path d="M1100 1290 C1120 1290 1100 1540 1120 1540" style="fill:transparent;stroke:black" /><text x="1130" y="1540" font-size="8" style="fill:black">lang: en</text><rect x="1186" y="1520" width="137" height="40" style="fill:green;stroke:black;stroke-width:1" /><text x="1196" y="1530" font-size="8" style="fill:white">Dragon Ball: Budokai 3</text><rect x="1120" y="1570" width="200" height="40" style="fill:white;stroke:black;stroke-width:1" /><text x="1130" y="1580" font-size="10" style="fill:blue">li</text><path d="M1100 1290 C1120 1290 1100 1590 1120 1590" style="fill:transparent;stroke:black" /><rect x="1186" y="1570" width="137" height="40" style="fill:green;stroke:black;stroke-width:1" /><text x="1196" y="1580" font-size="8" style="fill:white">Uncharted 2</text><rect x="1120" y="1620" width="200" height="40" style="fill:white;stroke:black;stroke-width:1" /><text x="1130" y="1630" font-size="10" style="fill:blue">li</text><path d="M1100 1290 C1120 1290 1100 1640 1120 1640" style="fill:transparent;stroke:black" /><text x="1130" y="1640" font-size="8" style="fill:black">lang: en</text><rect x="1186" y="1620" width="137" height="40" style="fill:green;stroke:black;stroke-width:1" /><text x="1196" y="1630" font-size="8" style="fill:white">GTA V</text><rect x="1120" y="1670" width="200" height="40" style="fill:white;stroke:black;stroke-width:1" /><text x="1130" y="1680" font-size="10" style="fill:blue">li</text><path d="M1100 1290 C1120 1290 1100 1690 1120 1690" style="fill:transparent;stroke:black" /><text x="1130" y="1690" font-size="8" style="fill:black">lang: en</text><rect x="1186" y="1670" width="137" height="40" style="fill:green;stroke:black;stroke-width:1" /><text x="1196" y="1680" font-size="8" style="fill:white">Super Mario Galaxy 2</text><rect x="1120" y="1720" width="200" height="40" style="fill:white;stroke:black;stroke-width:1" /><text x="1130" y="1730" font-size="10" style="fill:blue">li</text><path d="M1100 1290 C1120 1290 1100 1740 1120 1740" style="fill:transparent;stroke:black" /><rect x="1186" y="1720" width="137" height="40" style="fill:green;stroke:black;stroke-width:1" /><text x="1196" y="1730" font-size="8" style="fill:white">FIFA 17</text><rect x="900" y="1820" width="200" height="40" style="fill:white;stroke:black;stroke-width:1" /><text x="910" y="1830" font-size="10" style="fill:blue">p</text><path d="M880 1190 C900 1190 880 1840 900 1840" style="fill:transparent;stroke:black" /><text x="910" y="1840" font-size="8" style="fill:black">lang: en</text><rect x="966" y="1820" width="137" height="40" style="fill:green;stroke:black;stroke-width:1" /><text x="976" y="1830" font-size="8" style="fill:white">Pokémon Esmeralda Opening Theme:</text><rect x="900" y="1870" width="200" height="40" style="fill:white;stroke:black;stroke-width:1" /><text x="910" y="1880" font-size="10" style="fill:blue">audio</text><path d="M880 1190 C900 1190 880 1890 900 1890" style="fill:transparent;stroke:black" /><text x="910" y="1890" font-size="8" style="fill:black">preload: auto</text><text x="910" y="1900" font-size="8" style="fill:black">controls: controls</text><rect x="1120" y="1870" width="200" height="40" style="fill:white;stroke:black;stroke-width:1" /><text x="1130" y="1880" font-size="10" style="fill:blue">source</text><path d="M1100 1890 C1120 1890 1100 1890 1120 1890" style="fill:transparent;stroke:black" /><text x="1130" y="1890" font-size="8" style="fill:black">src: https://unioviedo-my.sharepoint.com/personal/uo250707_uniovi_es/_layouts/15/guestaccess.aspx?docid=084b53e76446045c39aa71b3d93e92ac7&amp;authkey=AQpbYc_OpYGrSPa-sqCfEXo&amp;e=a9494ff27e524a548055d74e75303ac4</text><text x="1130" y="1900" font-size="8" style="fill:black">type: audio/mp3</text><rect x="460" y="2070" width="200" height="40" style="fill:white;stroke:black;stroke-width:1" /><text x="470" y="2080" font-size="10" style="fill:blue">footer</text><path d="M440 390 C460 390 440 2090 460 2090" style="fill:transparent;stroke:black" /><rect x="680" y="2070" width="200" height="40" style="fill:white;stroke:black;stroke-width:1" /><text x="690" y="2080" font-size="10" style="fill:blue">a</text><path d="M660 2090 C680 2090 660 2090 680 2090" style="fill:transparent;stroke:black" /><text x="690" y="2090" font-size="8" style="fill:black">href: #arriba</text><rect x="746" y="2070" width="137" height="40" style="fill:green;stroke:black;stroke-width:1" /><text x="756" y="2080" font-size="8" style="fill:white">Volver arriba</text><rect x="680" y="2120" width="200" height="40" style="fill:white;stroke:black;stroke-width:1" /><text x="690" y="2130" font-size="10" style="fill:blue">p</text><path d="M660 2090 C680 2090 660 2140 680 2140" style="fill:transparent;stroke:black" /><rect x="746" y="2120" width="137" height="40" style="fill:green;stroke:black;stroke-width:1" /><text x="756" y="2130" font-size="8" style="fill:white">Copyright © 2017 Carlos Sanabria Miranda</text><rect x="680" y="2170" width="200" height="40" style="fill:white;stroke:black;stroke-width:1" /><text x="690" y="2180" font-size="10" style="fill:blue">p</text><path d="M660 2090 C680 2090 660 2190 680 2190" style="fill:transparent;stroke:black" /><rect x="746" y="2170" width="137" height="40" style="fill:green;stroke:black;stroke-width:1" /><text x="756" y="2180" font-size="8" style="fill:white">Esta página web ha sido validada satisfactoriamente:</text><rect x="680" y="2220" width="200" height="40" style="fill:white;stroke:black;stroke-width:1" /><text x="690" y="2230" font-size="10" style="fill:blue">a</text><path d="M660 2090 C680 2090 660 2240 680 2240" style="fill:transparent;stroke:black" /><text x="690" y="2240" font-size="8" style="fill:black">href: https://validator.w3.org/check?uri=referer</text><rect x="900" y="2220" width="200" height="40" style="fill:white;stroke:black;stroke-width:1" /><text x="910" y="2230" font-size="10" style="fill:blue">img</text><path d="M880 2240 C900 2240 880 2240 900 2240" style="fill:transparent;stroke:black" /><text x="910" y="2240" font-size="8" style="fill:black">src: https://www.w3.org/html/logo/badge/html5-badge-h-solo.png</text><text x="910" y="2250" font-size="8" style="fill:black">alt: HTML5 Válido</text><text x="910" y="2260" font-size="8" style="fill:black">title: HTML5 Válido</text><rect x="680" y="2320" width="200" height="40" style="fill:white;stroke:black;stroke-width:1" /><text x="690" y="2330" font-size="10" style="fill:blue">a</text><path d="M660 2090 C680 2090 660 2340 680 2340" style="fill:transparent;stroke:black" /><text x="690" y="2340" font-size="8" style="fill:black">href:  http://jigsaw.w3.org/css-validator/check/referer </text><rect x="900" y="2320" width="200" height="40" style="fill:white;stroke:black;stroke-width:1" /><text x="910" y="2330" font-size="10" style="fill:blue">img</text><path d="M880 2340 C900 2340 880 2340 900 2340" style="fill:transparent;stroke:black" /><text x="910" y="2340" font-size="8" style="fill:black">src:  http://jigsaw.w3.org/css-validator/images/vcss</text><text x="910" y="2350" font-size="8" style="fill:black">alt: ¡CSS Válido!</text></svg>